<svg width="508" height="109" viewBox="0 0 508 109" fill="none" xmlns="http://www.w3.org/2000/svg">
<path d="M3.67943 69.0284C-0.321332 44.2313 22.2026 23.0307 46.6482 28.4886C62.3047 31.9905 72.9839 45.2724 72.9839 62.3717C72.9839 65.6212 70.3377 68.2713 67.093 68.2713H20.155C19.0839 68.2713 18.3279 69.3124 18.6429 70.3219C21.3836 78.7769 28.566 84.2348 38.8672 84.2348C45.4196 84.2348 50.8065 81.6794 54.4607 77.3257C56.6974 74.6756 60.5721 74.0446 63.5648 75.7798C67.5656 78.0828 68.4476 83.4776 65.3604 86.9164C59.2175 93.7624 50.4599 97.9584 38.8672 97.9584C19.8715 97.9584 6.3256 85.5914 3.67943 69.0284ZM21.1946 55.2102H55.0592C56.1618 55.2102 56.9179 54.106 56.5398 53.0649C53.7362 45.3355 47.1837 41.3289 38.2687 41.3289C29.3536 41.3289 23.0217 45.9034 19.7455 52.9702C19.2729 54.0113 20.0605 55.2102 21.1946 55.2102Z" fill="#D6E3FF"/>
<path d="M77.9612 54.3896C77.9612 30.3497 96.0749 11.042 120.993 11.042C134.602 11.042 145.943 16.4683 153.661 24.8918C157.063 28.6145 156.212 34.5141 151.897 37.1326C148.715 39.057 144.116 38.2999 141.721 35.429C136.618 29.3401 129.751 26.3115 121.119 26.3115C105.431 26.3115 93.5548 39.1517 93.5548 54.3896C93.5548 69.6275 105.337 82.4678 121.718 82.4678C133.058 82.4678 140.965 76.8521 144.809 67.8293C145.533 66.1256 144.273 64.2012 142.414 64.2012H126.695C122.568 64.2012 119.197 60.8255 119.197 56.6926C119.197 52.5598 122.568 49.1841 126.695 49.1841H156.685C160.119 49.1841 162.922 51.9919 162.922 55.4307C162.922 78.2087 147.014 97.7372 121.718 97.7372C96.4214 97.7372 77.9612 77.8617 77.9612 54.3896Z" fill="#D6E3FF"/>
<path d="M259.602 12.209C262.941 12.209 265.871 14.3543 266.91 17.5091L283.229 66.8194C283.827 68.6492 286.41 68.6492 287.009 66.8194L303.232 17.5407C304.272 14.3858 307.233 12.2405 310.541 12.2405C315.802 12.2405 319.519 17.4145 317.849 22.3991L295.483 89.0926C293.971 93.5725 289.781 96.6012 285.056 96.6012C280.33 96.6012 276.141 93.5725 274.628 89.0926L252.262 22.3991C250.624 17.3829 254.341 12.209 259.602 12.209Z" fill="#D6E3FF"/>
<mask id="mask0_11562_5322" style="mask-type:luminance" maskUnits="userSpaceOnUse" x="166" y="11" width="88" height="87">
<path d="M168.341 66.1569C160.875 37.1638 182.012 11.0732 209.86 11.0732C233.865 11.0732 253.018 30.4756 253.018 54.4209C253.018 81.8049 228.163 103.037 199.591 96.6012C184.344 93.1308 172.247 81.3002 168.341 66.1569ZM237.425 55.6828C238.149 39.6877 225.611 26.4689 209.797 26.532C195.18 26.5635 183.115 38.3942 182.453 53.0012C181.697 68.9963 194.078 82.2466 209.892 82.2151C224.572 82.2466 236.763 70.3844 237.425 55.6828Z" fill="white"/>
</mask>
<g mask="url(#mask0_11562_5322)">
<path d="M177.823 11.042L219.594 54.3896L169.79 96.5699L164.623 66.7566L166.828 26.5323L177.823 11.042Z" fill="#D6E3FF"/>
<path d="M266.186 54.4212H219.248L174.609 7.41397L206.868 0.0947266L247.033 2.30312L266.186 54.4212Z" fill="#D6E3FF"/>
<path d="M262.5 54.4215L219.216 54.043L166.923 98.3686L206.868 109.095L247.033 106.887L262.5 54.4215Z" fill="#D6E3FF"/>
</g>
<path d="M316.369 73.2497C316.369 59.4914 326.705 49.582 340.002 49.582C347.943 49.582 354.927 53.4278 359.133 59.3999C359.734 60.2549 359.486 61.4411 358.607 62.0058L354.237 64.801C353.406 65.331 352.294 65.1228 351.736 64.3089C349.068 60.4 345.335 58.0433 339.998 58.0433C331.238 58.0433 324.874 64.6685 324.874 73.2529C324.874 81.8372 331.238 88.3362 339.809 88.3362C345.505 88.3362 349.638 85.4558 352.202 81.2315C352.713 80.3891 353.777 80.0768 354.647 80.5342L359.17 82.9098C360.112 83.4052 360.449 84.5977 359.892 85.5063C355.658 92.3839 348.394 96.9205 339.998 96.9205C325.819 96.9205 316.366 86.3802 316.366 73.2529L316.369 73.2497Z" fill="#D6E3FF"/>
<path d="M388.505 77.2907H374.547C373.529 77.2907 372.704 78.1173 372.704 79.1363V94.4405C372.704 95.4595 371.878 96.2861 370.861 96.2861H365.978C364.961 96.2861 364.135 95.4595 364.135 94.4405V52.0614C364.135 51.0424 364.961 50.2158 365.978 50.2158H370.861C371.878 50.2158 372.704 51.0424 372.704 52.0614V67.2394C372.704 68.2584 373.529 69.085 374.547 69.085H388.505C389.523 69.085 390.348 68.2584 390.348 67.2394V52.0614C390.348 51.0424 391.173 50.2158 392.191 50.2158H397.074C398.091 50.2158 398.917 51.0424 398.917 52.0614V94.4405C398.917 95.4595 398.091 96.2861 397.074 96.2861H392.191C391.173 96.2861 390.348 95.4595 390.348 94.4405V79.1363C390.348 78.1173 389.523 77.2907 388.505 77.2907Z" fill="#D6E3FF"/>
<path d="M420.196 50.2158H426.229C427.01 50.2158 427.703 50.708 427.965 51.4431L443.035 93.8221C443.464 95.0241 442.572 96.2892 441.299 96.2892H436.278C435.494 96.2892 434.794 95.7907 434.536 95.0462L432.558 89.3265C432.299 88.5819 431.6 88.0835 430.816 88.0835H415.606C414.822 88.0835 414.123 88.5819 413.864 89.3265L411.886 95.0462C411.628 95.7907 410.928 96.2892 410.144 96.2892H405.123C403.85 96.2892 402.958 95.0241 403.387 93.8221L418.457 51.4431C418.719 50.708 419.415 50.2158 420.193 50.2158H420.196ZM418.678 79.8777H426.701C427.968 79.8777 428.859 78.6252 428.444 77.4264L424.241 65.2802C423.913 64.3306 422.572 64.3306 422.244 65.2802L417.679 78.4738C417.44 79.1616 417.95 79.8777 418.678 79.8777Z" fill="#D6E3FF"/>
<path d="M449.663 50.2158H454.546C455.564 50.2158 456.389 51.0424 456.389 52.0614V94.4405C456.389 95.4595 455.564 96.2861 454.546 96.2861H449.663C448.646 96.2861 447.82 95.4595 447.82 94.4405V52.0614C447.82 51.0424 448.646 50.2158 449.663 50.2158Z" fill="#D6E3FF"/>
<path d="M463.842 50.2158H470.691C471.321 50.2158 471.907 50.5376 472.247 51.0708L488.219 76.2275C489.208 77.786 491.618 77.0857 491.618 75.2369V52.0614C491.618 51.0424 492.443 50.2158 493.461 50.2158H498.343C499.361 50.2158 500.186 51.0424 500.186 52.0614V94.4405C500.186 95.4595 499.361 96.2861 498.343 96.2861H492.065C491.432 96.2861 490.846 95.9611 490.509 95.4279L473.973 69.2869C472.984 67.7252 470.571 68.4256 470.571 70.2743V94.4405C470.571 95.4595 469.746 96.2861 468.728 96.2861H463.845C462.828 96.2861 462.003 95.4595 462.003 94.4405V52.0614C462.003 51.0424 462.828 50.2158 463.845 50.2158H463.842Z" fill="#D6E3FF"/>
</svg>
