<svg width="538" height="523" viewBox="0 0 538 523" fill="none" xmlns="http://www.w3.org/2000/svg">
<path d="M365.275 392.643V319.115L301.598 355.879V429.407L365.275 392.643Z" fill="#E1E7F3"/>
<path d="M428.952 355.878L365.274 319.114V392.642L428.952 429.406V355.878Z" fill="#E0E6F4"/>
<path d="M365.275 466.17L428.952 429.406L365.275 392.642L301.598 429.406L365.275 466.17Z" fill="#F6F7F8"/>
<path d="M365.274 392.644V466.172L428.951 429.408V355.88L365.274 392.644Z" fill="#E1E7F3"/>
<path d="M301.597 429.408L365.275 466.172V392.644L301.597 355.88V429.408Z" fill="#BCD0FF"/>
<path d="M365.274 319.115L301.597 355.879L365.274 392.643L428.951 355.879L365.274 319.115Z" fill="#F6F7F8"/>
<path d="M171.924 393.665L171.924 320.137L108.247 356.901L108.247 430.429L171.924 393.665Z" fill="#E1E7F3"/>
<path d="M235.602 356.901L171.925 320.137V393.665L235.602 430.429V356.901Z" fill="#E0E6F4"/>
<path d="M171.924 467.193L235.601 430.429L171.924 393.665L108.247 430.429L171.924 467.193Z" fill="#F6F7F8"/>
<path d="M171.924 393.664L171.924 467.192L235.601 430.428V356.9L171.924 393.664Z" fill="#E1E7F3"/>
<path d="M108.247 430.428L171.924 467.192V393.664L108.247 356.9L108.247 430.428Z" fill="#BCD0FF"/>
<path d="M171.924 320.138L108.247 356.902L171.924 393.666L235.601 356.902L171.924 320.138Z" fill="#F6F7F8"/>
<path d="M268.94 449.151V375.623L205.263 412.387V485.915L268.94 449.151Z" fill="#E1E7F3"/>
<path d="M332.616 412.386L268.939 375.622V449.15L332.616 485.914V412.386Z" fill="#E0E6F4"/>
<path d="M268.939 522.679L332.616 485.915L268.939 449.151L205.262 485.915L268.939 522.679Z" fill="#F6F7F8"/>
<path d="M268.94 449.151V522.679L332.617 485.915V412.387L268.94 449.151Z" fill="#F0969D"/>
<path d="M205.263 485.915L268.94 522.679V449.151L205.263 412.387V485.915Z" fill="#EE7F87"/>
<path d="M268.939 375.62L205.263 412.384L268.939 449.148L332.616 412.384L268.939 375.62Z" fill="#F4B4B9"/>
<path d="M268.94 337.157V263.629L205.263 300.393V373.921L268.94 337.157Z" fill="#E1E7F3"/>
<path d="M332.617 300.393L268.94 263.629V337.157L332.617 373.921V300.393Z" fill="#E0E6F4"/>
<path d="M268.94 410.681L332.617 373.917L268.94 337.153L205.263 373.917L268.94 410.681Z" fill="#F6F7F8"/>
<path d="M268.94 337.155V410.683L332.617 373.919V300.391L268.94 337.155Z" fill="#E1E7F3"/>
<path d="M205.263 373.919L268.94 410.683V337.155L205.263 300.391V373.919Z" fill="#BCD0FF"/>
<path d="M268.94 263.626L205.263 300.39L268.94 337.154L332.617 300.39L268.94 263.626Z" fill="#F6F7F8"/>
<path d="M474 241.23V167.702L410.323 204.466V277.994L474 241.23Z" fill="#E1E7F3"/>
<path d="M537.677 204.464L474 167.7V241.228L537.677 277.992V204.464Z" fill="#E0E6F4"/>
<path d="M474 314.756L537.677 277.992L474 241.228L410.323 277.992L474 314.756Z" fill="#F6F7F8"/>
<path d="M474.001 241.228V314.756L537.678 277.992V204.464L474.001 241.228Z" fill="#E1E7F3"/>
<path d="M410.323 277.992L474.001 314.756V241.228L410.323 204.464V277.992Z" fill="#BCD0FF"/>
<path d="M474 167.698L410.323 204.462L474 241.226L537.677 204.462L474 167.698Z" fill="#F6F7F8"/>
<path d="M376.984 75.2272V1.69921L313.307 38.4632V111.991L376.984 75.2272Z" fill="#E1E7F3"/>
<path d="M440.661 38.4632L376.984 1.69921V75.2272L440.661 111.991V38.4632Z" fill="#E0E6F4"/>
<path d="M376.984 148.754L440.661 111.99L376.984 75.2259L313.307 111.99L376.984 148.754Z" fill="#F6F7F8"/>
<path d="M376.984 75.2259V148.754L440.661 111.99V38.4619L376.984 75.2259Z" fill="#E1E7F3"/>
<path d="M313.307 111.99L376.984 148.754V75.2259L313.307 38.4619V111.99Z" fill="#BCD0FF"/>
<path d="M376.984 1.69824L313.307 38.4622L376.984 75.2262L440.661 38.4622L376.984 1.69824Z" fill="#F6F7F8"/>
<path d="M474.001 130.713V57.1846L410.324 93.9486V167.477L474.001 130.713Z" fill="#E1E7F3"/>
<path d="M537.678 93.9486L474.001 57.1846V130.713L537.678 167.477V93.9486Z" fill="#E0E6F4"/>
<path d="M474.001 204.237L537.678 167.473L474.001 130.709L410.324 167.473L474.001 204.237Z" fill="#F6F7F8"/>
<path d="M474 130.71V204.238L537.677 167.474V93.9463L474 130.71Z" fill="#6696FF"/>
<path d="M410.323 167.474L474.001 204.238V130.71L410.323 93.9463V167.474Z" fill="#4C85FF"/>
<path d="M474 57.1807L410.323 93.9447L474 130.709L537.677 93.9447L474 57.1807Z" fill="#8EB2FF"/>
<path d="M377.665 185.86V112.332L313.989 149.096V222.624L377.665 185.86Z" fill="#E1E7F3"/>
<path d="M441.343 149.096L377.666 112.332V185.86L441.343 222.624V149.096Z" fill="#E0E6F4"/>
<path d="M377.666 259.386L441.343 222.622L377.666 185.858L313.989 222.622L377.666 259.386Z" fill="#F6F7F8"/>
<path d="M377.666 185.859V259.387L441.343 222.623V149.095L377.666 185.859Z" fill="#E1E7F3"/>
<path d="M313.989 222.625L377.666 259.389V185.861L313.989 149.097V222.625Z" fill="#BCD0FF"/>
<path d="M377.665 112.331L313.988 149.095L377.665 185.859L441.342 149.095L377.665 112.331Z" fill="#F6F7F8"/>
<path d="M63.9984 241.232L63.9984 167.704L0.321392 204.468L0.321392 277.996L63.9984 241.232Z" fill="#E1E7F3"/>
<path d="M127.675 204.468L63.9979 167.704L63.9979 241.232L127.675 277.996L127.675 204.468Z" fill="#E0E6F4"/>
<path d="M63.9982 314.76L127.675 277.996L63.9982 241.232L0.321251 277.996L63.9982 314.76Z" fill="#F6F7F8"/>
<path d="M63.9989 241.231L63.9989 314.759L127.676 277.995L127.676 204.467L63.9989 241.231Z" fill="#E1E7F3"/>
<path d="M0.321228 277.995L63.9985 314.759L63.9985 241.231L0.321228 204.467L0.321228 277.995Z" fill="#BCD0FF"/>
<path d="M63.9985 167.704L0.321533 204.468L63.9985 241.232L127.675 204.468L63.9985 167.704Z" fill="#F6F7F8"/>
<path d="M160.335 74.2067L160.335 0.678703L96.6585 37.4427L96.6585 110.971L160.335 74.2067Z" fill="#E1E7F3"/>
<path d="M224.012 37.4427L160.335 0.678703V74.2067L224.012 110.971V37.4427Z" fill="#E0E6F4"/>
<path d="M160.335 147.732L224.012 110.968L160.335 74.2044L96.6581 110.968L160.335 147.732Z" fill="#F6F7F8"/>
<path d="M160.335 74.2064L160.335 147.734L224.012 110.97V37.4424L160.335 74.2064Z" fill="#E1E7F3"/>
<path d="M96.658 110.97L160.335 147.734V74.2064L96.658 37.4424L96.658 110.97Z" fill="#BCD0FF"/>
<path d="M160.335 0.677734L96.6583 37.4417L160.335 74.2057L224.012 37.4417L160.335 0.677734Z" fill="#F6F7F8"/>
<path d="M63.999 130.712L63.999 57.1836L0.322002 93.9476L0.322002 167.476L63.999 130.712Z" fill="#E1E7F3"/>
<path d="M127.677 93.9476L63.9993 57.1836L63.9993 130.712L127.677 167.476L127.677 93.9476Z" fill="#E0E6F4"/>
<path d="M63.9993 204.24L127.676 167.476L63.9993 130.712L0.32235 167.476L63.9993 204.24Z" fill="#F6F7F8"/>
<path d="M63.9987 130.713L63.9987 204.241L127.676 167.477L127.676 93.9492L63.9987 130.713Z" fill="#FCEC7B"/>
<path d="M0.322205 167.477L63.9995 204.241L63.9995 130.713L0.322205 93.9492L0.322205 167.477Z" fill="#F9D866"/>
<path d="M63.9992 57.1855L0.322205 93.9495L63.9992 130.714L127.676 93.9495L63.9992 57.1855Z" fill="#FDF39C"/>
<path d="M160.335 186.883L160.335 113.355L96.6579 150.119L96.6579 223.647L160.335 186.883Z" fill="#E1E7F3"/>
<path d="M224.012 150.119L160.335 113.355V186.883L224.012 223.647V150.119Z" fill="#E0E6F4"/>
<path d="M160.335 260.41L224.012 223.646L160.335 186.882L96.6578 223.646L160.335 260.41Z" fill="#F6F7F8"/>
<path d="M160.335 186.886L160.335 260.414L224.012 223.65V150.122L160.335 186.886Z" fill="#E1E7F3"/>
<path d="M96.6586 223.65L160.336 260.414V186.886L96.6586 150.122L96.6586 223.65Z" fill="#BCD0FF"/>
<path d="M160.335 113.356L96.6579 150.12L160.335 186.884L224.012 150.12L160.335 113.356Z" fill="#F6F7F8"/>
</svg>
