<svg width="73" height="73" viewBox="0 0 73 73" fill="none" xmlns="http://www.w3.org/2000/svg">
<path d="M59.9023 9.74956L37.4023 2.99956C36.9839 2.87515 36.5383 2.87515 36.1198 2.99956L13.6198 9.74956C13.1373 9.88986 12.7157 10.1876 12.4221 10.5954C12.1285 11.0032 11.9798 11.4975 11.9998 11.9996V45.7496C11.9998 59.4746 34.8598 69.8696 35.8273 70.2971C36.1174 70.4275 36.4318 70.4949 36.7498 70.4949C37.0679 70.4949 37.3823 70.4275 37.6723 70.2971C38.6398 69.8696 61.4998 59.4746 61.4998 45.7496V11.9996C61.5212 11.5004 61.3757 11.0083 61.0865 10.6009C60.7972 10.1935 60.3806 9.894 59.9023 9.74956Z" fill="#87ACFB"/>
<path d="M59.9025 9.75034L37.4025 3.00034C37.1862 2.96864 36.9663 2.96864 36.75 3.00034V70.5003C37.0684 70.4989 37.3828 70.4298 37.6725 70.2978C38.64 69.8703 61.5 59.4753 61.5 45.7503V12.0003C61.5213 11.5012 61.3759 11.0091 61.0867 10.6017C60.7974 10.1943 60.3808 9.89478 59.9025 9.75034Z" fill="#A3C0FF"/>
<path d="M34.7025 41.2496C34.4064 41.2513 34.1128 41.1946 33.8387 41.0826C33.5646 40.9706 33.3152 40.8057 33.105 40.5971L28.335 35.8271C27.9664 35.3967 27.7738 34.843 27.7956 34.2768C27.8175 33.7105 28.0522 33.1733 28.453 32.7726C28.8537 32.3719 29.3908 32.1371 29.9571 32.1153C30.5234 32.0934 31.077 32.286 31.5075 32.6546L34.68 35.8271L44.22 26.2871C44.6504 25.9185 45.2041 25.7259 45.7703 25.7478C46.3366 25.7696 46.8738 26.0044 47.2745 26.4051C47.6752 26.8058 47.91 27.343 47.9318 27.9093C47.9537 28.4755 47.7611 29.0292 47.3925 29.4596L36.255 40.5971C35.8414 41.0074 35.2849 41.2413 34.7025 41.2496Z" fill="white"/>
</svg>
