<svg width="72" height="72" viewBox="0 0 72 72" fill="none" xmlns="http://www.w3.org/2000/svg">
<g clip-path="url(#clip0_11607_15399)">
<path d="M38.2274 23.6221L33.7499 23.6158L33.7726 7.30896L38.2501 7.31521L38.2274 23.6221Z" fill="#D6E3FF"/>
<path d="M41.4112 3.97168H30.6056C30.2951 3.97097 29.9915 4.06304 29.7337 4.23606L28.8731 4.79856C28.6592 4.94266 28.4838 5.13693 28.3622 5.3644C28.2406 5.59187 28.1766 5.84564 28.1756 6.10356V10.7723C28.1766 11.0302 28.2406 11.284 28.3622 11.5115C28.4838 11.7389 28.6592 11.9332 28.8731 12.0773L29.7337 12.6398C29.9915 12.8128 30.2951 12.9049 30.6056 12.9042H41.4112C41.7217 12.9049 42.0253 12.8128 42.2831 12.6398L43.1437 12.0773C43.3587 11.9343 43.5349 11.7402 43.6566 11.5125C43.7783 11.2848 43.8417 11.0305 43.8412 10.7723V6.10356C43.8399 5.84727 43.7756 5.59523 43.6539 5.36963C43.5323 5.14403 43.3571 4.95178 43.1437 4.80981L42.2831 4.24731C42.0266 4.0703 41.7229 3.97429 41.4112 3.97168Z" fill="#87ACFB"/>
<path d="M47.3268 28.1865L43.3085 25.8318L51.5302 11.8014L55.5486 14.1561L47.3268 28.1865Z" fill="#D6E3FF"/>
<path d="M58.5 12.8191L51.1875 8.54407C50.9788 8.42062 50.7374 8.36372 50.4956 8.38094L49.7025 8.43719C49.5005 8.4502 49.3047 8.51234 49.1322 8.61821C48.9596 8.72408 48.8156 8.87048 48.7125 9.04469L46.8675 12.2059C46.765 12.3804 46.7072 12.5775 46.6993 12.7797C46.6915 12.9818 46.7338 13.1828 46.8225 13.3647L47.1825 14.0959C47.2892 14.3138 47.4574 14.4956 47.6662 14.6191L54.9787 18.8884C55.188 19.011 55.4285 19.0696 55.6706 19.0572L56.4806 19.0066C56.6829 18.9945 56.879 18.9328 57.0517 18.8268C57.2244 18.7209 57.3683 18.5739 57.4706 18.3991L59.3156 15.2434C59.4181 15.068 59.4759 14.87 59.4837 14.6669C59.4916 14.4638 59.4493 14.2619 59.3606 14.0791L59.0062 13.3534C58.8953 13.1283 58.7188 12.942 58.5 12.8191Z" fill="#87ACFB"/>
<path d="M46.0217 66.0281C59.3822 60.494 65.7267 45.177 60.1926 31.8166C54.6585 18.4561 39.3415 12.1116 25.9811 17.6457C12.6206 23.1798 6.27611 38.4968 11.8102 51.8572C17.3443 65.2177 32.6613 71.5622 46.0217 66.0281Z" fill="#87ACFB"/>
<path d="M56.0739 45.1009C57.8738 34.0126 50.344 23.5646 39.2557 21.7647C28.1673 19.9648 17.7193 27.4946 15.9195 38.5829C14.1196 49.6713 21.6493 60.1193 32.7377 61.9191C43.826 63.719 54.274 56.1893 56.0739 45.1009Z" fill="#D6E3FF"/>
<path d="M42.9715 58.664C52.265 54.8145 56.6782 44.1601 52.8287 34.8666C48.9792 25.5731 38.3248 21.1599 29.0313 25.0094C19.7378 28.8589 15.3246 39.5133 19.1741 48.8068C23.0236 58.1003 33.678 62.5135 42.9715 58.664Z" fill="white"/>
<path d="M43.0433 30.188L43.0385 30.1851C42.3919 29.7954 41.5519 30.0036 41.1622 30.6501L35.5346 39.9865C35.1449 40.633 35.3531 41.4731 35.9996 41.8628L36.0044 41.8657C36.651 42.2554 37.491 42.0472 37.8807 41.4007L43.5083 32.0643C43.898 31.4178 43.6898 30.5777 43.0433 30.188Z" fill="#87ACFB"/>
<path d="M36.3263 54.0277H36.2644C36.0932 54.0107 35.9203 54.0288 35.7563 54.0809C35.5923 54.1329 35.4407 54.2179 35.3107 54.3306C35.1806 54.4432 35.0749 54.5812 35 54.7361C34.9251 54.891 34.8826 55.0595 34.875 55.2314V60.1308C35.3475 60.1702 35.7975 60.1308 36.2812 60.1308C36.765 60.1308 37.2206 60.0914 37.6875 60.0577V55.2202C37.6798 55.0513 37.638 54.8858 37.5647 54.7335C37.4915 54.5811 37.3881 54.4452 37.261 54.3338C37.1339 54.2225 36.9855 54.1379 36.8249 54.0853C36.6643 54.0327 36.4946 54.0131 36.3263 54.0277Z" fill="#87ACFB"/>
<path d="M34.875 23.625V28.5413C34.8777 28.7166 34.916 28.8895 34.9875 29.0496C35.0591 29.2097 35.1625 29.3536 35.2914 29.4725C35.4203 29.5914 35.572 29.6828 35.7373 29.7413C35.9027 29.7997 36.0781 29.824 36.2531 29.8125H36.315C36.4881 29.8231 36.6616 29.7988 36.8252 29.7411C36.9888 29.6833 37.139 29.5932 37.2671 29.4762C37.3951 29.3591 37.4983 29.2176 37.5706 29.0599C37.6428 28.9021 37.6825 28.7315 37.6875 28.5581V23.7094C37.6875 23.7094 36.6356 23.625 36.2812 23.625H34.875Z" fill="#87ACFB"/>
<path d="M54.1294 40.5H48.5719C48.3947 40.4992 48.2192 40.5341 48.0558 40.6027C47.8924 40.6713 47.7446 40.7722 47.6212 40.8993C47.4977 41.0264 47.4012 41.1771 47.3375 41.3424C47.2737 41.5077 47.2439 41.6842 47.25 41.8613V41.9231C47.2432 42.1013 47.2721 42.279 47.3349 42.4458C47.3978 42.6126 47.4933 42.7652 47.6159 42.8947C47.7385 43.0241 47.8857 43.1277 48.0489 43.1995C48.2121 43.2712 48.388 43.3096 48.5662 43.3125H54.1912C54.225 42.84 54.2306 42.39 54.2306 41.9063C54.2306 41.4225 54.1631 40.9669 54.1294 40.5Z" fill="#87ACFB"/>
<path d="M24.75 41.9231V41.8669C24.7354 41.4983 24.5783 41.1498 24.3118 40.8948C24.0452 40.6398 23.6901 40.4983 23.3213 40.5H17.7863C17.7525 40.9556 17.7131 41.4394 17.7131 41.9063C17.7131 42.3731 17.7131 42.8456 17.7638 43.3125H23.3325C23.7036 43.3126 24.06 43.1671 24.325 42.9073C24.5901 42.6476 24.7426 42.2942 24.75 41.9231Z" fill="#87ACFB"/>
<path d="M39.5113 42.4125C39.8264 40.4714 38.5083 38.6425 36.5672 38.3274C34.6261 38.0123 32.7971 39.3304 32.4821 41.2715C32.167 43.2126 33.4851 45.0416 35.4262 45.3566C37.3673 45.6717 39.1962 44.3536 39.5113 42.4125Z" fill="#87ACFB"/>
</g>
<defs>
<clipPath id="clip0_11607_15399">
<rect width="72" height="72" fill="white"/>
</clipPath>
</defs>
</svg>
