<svg width="73" height="72" viewBox="0 0 73 72" fill="none" xmlns="http://www.w3.org/2000/svg">
<path d="M65.3334 37.125H6.83337V69.75H65.3334V37.125Z" fill="#87ACFB"/>
<path d="M65.3334 37.125H6.83337V39.375H65.3334V37.125Z" fill="#D6E3FF"/>
<path d="M18.0507 60.75L15.1032 58.5C13.004 58.5 11.3007 60.2021 11.3007 62.3025V69.75H24.8007V62.3025C24.8007 60.2033 23.0986 58.5 20.9982 58.5L18.0507 60.75Z" fill="white"/>
<path d="M15.1032 58.6387L18.0507 60.8887L20.9982 58.6387C22.1941 57.5935 22.8511 55.9488 22.4146 54.151C22.0242 52.5457 20.7125 51.2474 19.1015 50.8818C16.1585 50.2158 13.5496 52.4343 13.5496 55.2625C13.5507 56.6159 14.1594 57.814 15.1032 58.6387Z" fill="white"/>
<path d="M18.0507 60.8887L15.8007 64.2637L18.0507 68.7637L20.3007 64.2637L18.0507 60.8887Z" fill="#87ACFB"/>
<path d="M48.4584 42.75H43.9584V47.25H48.4584V42.75Z" fill="white"/>
<path d="M38.3334 42.75H33.8334V47.25H38.3334V42.75Z" fill="white"/>
<path d="M28.2084 42.75H23.7084V47.25H28.2084V42.75Z" fill="white"/>
<path d="M18.0834 42.75H13.5834V47.25H18.0834V42.75Z" fill="white"/>
<path d="M58.5834 42.75H54.0834V47.25H58.5834V42.75Z" fill="white"/>
<path d="M36.0834 60.75L33.1359 58.5C31.0355 58.5 29.3334 60.2021 29.3334 62.3025V69.75H42.8334V62.3025C42.8334 60.2033 41.1312 58.5 39.0309 58.5L36.0834 60.75Z" fill="white"/>
<path d="M33.1359 58.6383L36.0834 60.8883L39.0309 58.6383C40.2267 57.5932 40.8838 55.9484 40.4473 54.1507C40.0569 52.5453 38.7451 51.2471 37.1341 50.8814C34.1922 50.2166 31.5834 52.4351 31.5834 55.2633C31.5834 56.6156 32.192 57.8137 33.1359 58.6383Z" fill="white"/>
<path d="M36.0834 60.8887L33.8334 64.2637L36.0834 68.7637L38.3334 64.2637L36.0834 60.8887Z" fill="#87ACFB"/>
<path d="M54.0508 60.75L51.1033 58.5C49.004 58.5 47.3008 60.2021 47.3008 62.3025V69.75H60.8008V62.3025C60.8008 60.2033 59.0987 58.5 56.9983 58.5L54.0508 60.75Z" fill="white"/>
<path d="M51.1032 58.6387L54.0507 60.8887L56.9982 58.6387C58.1941 57.5935 58.8511 55.9488 58.4146 54.151C58.0242 52.5457 56.7125 51.2474 55.1015 50.8818C52.1585 50.2158 49.5496 52.4343 49.5496 55.2625C49.5507 56.6159 50.1594 57.814 51.1032 58.6387Z" fill="white"/>
<path d="M54.0508 60.8887L51.8008 64.2637L54.0508 68.7637L56.3008 64.2637L54.0508 60.8887Z" fill="#87ACFB"/>
<path d="M69.8334 37.125H2.33337L13.9715 27H58.1952L69.8334 37.125Z" fill="#A3C0FF"/>
<path d="M36.0834 20.25H33.8334V27H36.0834V20.25Z" fill="#D6E3FF"/>
<path d="M27.0834 20.25H24.8334V27H27.0834V20.25Z" fill="#D6E3FF"/>
<path d="M45.0834 20.25H42.8334V27H45.0834V20.25Z" fill="#D6E3FF"/>
<path d="M40.5834 20.25H38.3334V27H40.5834V20.25Z" fill="#D6E3FF"/>
<path d="M31.5834 20.25H29.3334V27H31.5834V20.25Z" fill="#D6E3FF"/>
<path d="M46.2084 21.375H23.7084C23.7084 16.4047 27.7381 12.375 32.7084 12.375H37.2084C42.1786 12.375 46.2084 16.4047 46.2084 21.375Z" fill="#87ACFB"/>
<path d="M36.0834 5.625H33.8334V12.375H36.0834V5.625Z" fill="#D6E3FF"/>
<path d="M33.8334 2.25V8.25975C36.7876 9.24638 39.8791 9.24638 42.8334 8.25975V2.25C39.8791 3.23662 36.7876 3.23662 33.8334 2.25Z" fill="#87ACFB"/>
</svg>
