<svg width="72" height="72" viewBox="0 0 72 72" fill="none" xmlns="http://www.w3.org/2000/svg">
<g clip-path="url(#clip0_11580_10673)">
<path d="M61.7233 21.6299C61.7233 21.163 61.3464 20.7861 60.8796 20.7861C60.4141 20.7861 60.0358 21.163 60.0358 21.6299V21.6889L35.7147 33.5169L35.6318 33.5563L35.6332 33.6477L33.9189 48.0154L35.3618 65.7875L35.3744 65.81L48.7549 58.5679L61.2311 51.365C61.5222 51.2329 61.7233 50.9389 61.7233 50.5986V36.1143V28.2224V21.6299Z" fill="#A3C0FF"/>
<path d="M43.7864 65.4541C43.3842 65.6847 43.2464 66.1994 43.477 66.6002C43.7077 67.0024 44.2209 67.1416 44.6231 66.911L60.7148 57.6199C61.117 57.3892 61.2563 56.8746 61.0256 56.4738C60.7936 56.0716 60.2803 55.9324 59.8781 56.163L43.7864 65.4541ZM65.6972 27.0564C65.6972 26.591 65.3189 26.2127 64.8534 26.2127C64.3866 26.2127 64.0097 26.591 64.0097 27.0564V46.2588C64.0097 46.7242 64.3866 47.1025 64.8534 47.1025C65.3189 47.1025 65.6972 46.7242 65.6972 46.2588V27.0564ZM42.4294 4.05018C42.0272 3.81815 41.5139 3.95737 41.2833 4.35956C41.0513 4.76174 41.1905 5.27502 41.5927 5.50565L60.4491 16.3928C60.8512 16.6235 61.3645 16.4856 61.5966 16.0835C61.8272 15.6813 61.688 15.168 61.2858 14.936L42.4294 4.05018ZM11.7014 14.1246C11.2992 14.3566 11.1628 14.8727 11.3948 15.2749C11.6283 15.6771 12.143 15.8135 12.5452 15.5814L31.2863 4.76034C31.6884 4.5283 31.8263 4.01221 31.5928 3.61002C31.3608 3.20784 30.8447 3.07143 30.4425 3.30346L11.7014 14.1246ZM7.57547 25.6727C7.57547 25.2072 7.19859 24.8289 6.73172 24.8289C6.26625 24.8289 5.88797 25.2072 5.88797 25.6727V47.2713C5.88797 47.7367 6.26625 48.115 6.73172 48.115C7.19859 48.115 7.57547 47.7367 7.57547 47.2713V25.6727ZM11.9475 56.3022C11.5453 56.0716 11.032 56.2108 10.8014 56.613C10.5694 57.0138 10.7086 57.5285 11.1108 57.7591L29.0686 68.1274C29.4708 68.358 29.9841 68.2188 30.2147 67.8166C30.4453 67.4144 30.3075 66.9011 29.9053 66.6705L11.9475 56.3022Z" fill="#D6E3FF"/>
<path d="M64.8534 49.8361C65.648 49.8361 66.3666 50.1581 66.8883 50.6784C67.4086 51.2002 67.7306 51.9188 67.7306 52.7133C67.7306 53.5078 67.4086 54.2278 66.8883 54.7481C66.3666 55.2684 65.648 55.5919 64.8534 55.5919C64.0589 55.5919 63.3389 55.2684 62.8186 54.7481C62.2969 54.2278 61.9748 53.5078 61.9748 52.7133C61.9748 51.9188 62.2969 51.2002 62.8186 50.6784C63.3389 50.1581 64.0589 49.8361 64.8534 49.8361ZM63.8311 16.1381C64.6256 16.1381 65.3456 16.4602 65.8659 16.9805C66.3863 17.5008 66.7097 18.2208 66.7097 19.0153C66.7097 19.8098 66.3863 20.5298 65.8659 21.0502C65.3456 21.5705 64.6256 21.8925 63.8311 21.8925C63.0366 21.8925 62.318 21.5705 61.7963 21.0502C61.2759 20.5298 60.9539 19.8098 60.9539 19.0153C60.9539 18.2208 61.2759 17.5008 61.7963 16.9805C62.318 16.4602 63.0366 16.1381 63.8311 16.1381ZM36.6427 0C37.4372 0 38.1572 0.322031 38.6775 0.842344C39.1978 1.36266 39.5198 2.08266 39.5198 2.87719C39.5198 3.67031 39.1978 4.3875 38.6775 4.90922L38.0798 4.31578L38.6775 4.91203C38.1572 5.43234 37.4372 5.75578 36.6427 5.75578C35.8495 5.75578 35.1309 5.43375 34.6106 4.91203L35.2041 4.31578L34.6078 4.91203C34.0861 4.39172 33.7641 3.67172 33.7641 2.87719C33.7641 2.08266 34.0861 1.36266 34.6078 0.842344C34.6247 0.825469 34.643 0.808594 34.6613 0.793125C35.1773 0.300937 35.8763 0 36.6427 0ZM7.14657 16.1367C7.9411 16.1367 8.6611 16.4602 9.18141 16.9805C9.70313 17.5008 10.0252 18.2208 10.0252 19.0153C10.0252 19.807 9.70313 20.5256 9.18141 21.0459L8.58516 20.4525L9.18282 21.0502H9.18141C8.6611 21.5705 7.9411 21.8925 7.14657 21.8925C6.35203 21.8925 5.63344 21.5705 5.11172 21.0502C5.09485 21.0319 5.07797 21.0136 5.0625 20.9953C4.57172 20.4792 4.26938 19.7817 4.26938 19.0153C4.26938 18.2208 4.59141 17.5008 5.11172 16.9805C5.63344 16.4602 6.35203 16.1367 7.14657 16.1367ZM7.50657 50.9006C8.3011 50.9006 9.0211 51.2241 9.54141 51.7444C10.0617 52.2647 10.3852 52.9847 10.3852 53.7792C10.3852 54.5737 10.0617 55.2923 9.54141 55.8141C9.0211 56.3344 8.3011 56.6564 7.50657 56.6564C6.71203 56.6564 5.99203 56.3344 5.47172 55.8141C4.95141 55.2923 4.62938 54.5737 4.62938 53.7792C4.62938 52.9847 4.95141 52.2647 5.47172 51.7444C5.99203 51.2241 6.71203 50.9006 7.50657 50.9006ZM36.2363 66.2442C37.0308 66.2442 37.7508 66.5663 38.2711 67.088C38.7914 67.6083 39.1134 68.3283 39.1134 69.1228C39.1134 69.9173 38.7914 70.6359 38.2711 71.1577C37.7508 71.678 37.0308 72 36.2363 72C35.4417 72 34.7217 71.678 34.2014 71.1577C33.6811 70.6359 33.3577 69.9173 33.3577 69.1228C33.3577 68.3283 33.6811 67.6083 34.2014 67.088C34.7217 66.5663 35.4417 66.2442 36.2363 66.2442Z" fill="#87ACFB"/>
<path d="M16.519 29.6533C16.519 29.1879 16.1408 28.8096 15.6753 28.8096C15.2098 28.8096 14.8315 29.1879 14.8315 29.6533V42.5725C14.8315 43.0394 15.2098 43.4163 15.6753 43.4163C16.1408 43.4163 16.519 43.0394 16.519 42.5725V29.6533Z" fill="black"/>
<path d="M57.3892 29.2588C57.3892 28.7919 57.0109 28.415 56.5454 28.415C56.0785 28.415 55.7017 28.7919 55.7017 29.2588V42.9697C55.7017 43.4352 56.0785 43.8135 56.5454 43.8135C57.0109 43.8135 57.3892 43.4352 57.3892 42.9697V29.2588Z" fill="white"/>
<path d="M35.3744 65.81L35.778 33.6477V33.5577L35.6979 33.5183L11.5244 21.426C11.433 21.0589 11.1012 20.7861 10.7046 20.7861C10.2391 20.7861 9.86084 21.163 9.86084 21.6299V36.1143V50.5958V50.5986C9.86225 50.8897 10.0127 51.1724 10.2827 51.3285L10.7046 50.5986L10.2869 51.3257L22.8307 58.5679L35.3744 65.81Z" fill="#87ACFB"/>
<path d="M10.2994 20.8939L10.2867 20.9009L10.2811 20.9038L10.2671 20.9122L10.2488 20.9234L10.2474 20.9248L10.2319 20.9347L10.2305 20.9361L10.2136 20.9473L10.1967 20.96L10.1799 20.9727L10.1644 20.9853V20.9867L10.1616 20.9881L10.1335 21.0134H10.1321L10.1194 21.0275L10.118 21.0289L10.1039 21.0416L10.1025 21.043L10.0899 21.057L10.0885 21.0584L10.0646 21.0852L10.0617 21.088V21.0894L10.0491 21.1048H10.0477L10.0364 21.1203L10.035 21.1217L10.0238 21.1386L10.0125 21.1541L10.0111 21.1555L10.0013 21.1709L9.99846 21.1738L9.98721 21.192L9.97877 21.2061L9.97596 21.2103L9.96893 21.223L9.96612 21.23L9.96049 21.2413L9.95627 21.2483L9.95065 21.2595L9.94643 21.268L9.94221 21.2778C9.93377 21.2961 9.92534 21.3144 9.91831 21.3327L9.91409 21.3453L9.91127 21.3523C9.88877 21.417 9.87471 21.4831 9.86909 21.5492L9.86627 21.5675V21.5689V21.5872V21.5886L9.86487 21.6083V21.6097V21.628V21.6294V21.6491V21.6505L9.86627 21.6688V21.6702V21.6884V21.6913L9.86909 21.7095C9.87471 21.7756 9.88877 21.8417 9.91127 21.9064L9.91409 21.912L9.91831 21.9247C9.92534 21.943 9.93377 21.9627 9.94221 21.9809L9.94643 21.9908L9.95065 21.9992L9.95627 22.0091L9.96049 22.0175L9.96612 22.0288L9.96893 22.0344L9.97596 22.047L9.97877 22.0527L9.98721 22.0667L9.99846 22.085L10.0013 22.0864L10.0111 22.1019L10.0125 22.1047L10.0238 22.1202L10.035 22.137H10.0364L10.0477 22.1539H10.0491L10.0617 22.1694L10.0646 22.1736L10.0885 22.2003L10.0899 22.2017L10.1025 22.2158H10.1039L10.118 22.2298L10.1194 22.2313L10.1321 22.2439L10.1335 22.2453L10.1616 22.2692L10.1644 22.272L10.1799 22.2847V22.2861L10.1967 22.2973V22.2988L10.2136 22.3114L10.2305 22.3213L10.2319 22.3227L10.2474 22.3339L10.2488 22.3353L10.2671 22.3466L10.2811 22.355L10.2867 22.3578L10.2994 22.3648L35.3728 36.8408L35.37 36.8436C35.6653 37.0138 36.0211 36.9856 36.2813 36.8L61.2858 22.3648L61.2985 22.3578L61.3027 22.355L61.3167 22.3466L61.335 22.3353L61.3378 22.3339L61.3533 22.3227L61.3547 22.3213L61.3702 22.3114L61.3871 22.2988L61.3885 22.2973L61.4039 22.2861V22.2847L61.4194 22.272H61.4208L61.4236 22.2692L61.4503 22.2453L61.4517 22.2439L61.4658 22.2313L61.4672 22.2298L61.4799 22.2158H61.4813L61.4953 22.2017V22.2003L61.5207 22.1736L61.5221 22.1694H61.5235L61.5361 22.1539L61.5488 22.137L61.5614 22.1202L61.5727 22.1047L61.5741 22.1019L61.5839 22.0864L61.5853 22.085L61.5966 22.0667L61.605 22.0527L61.6078 22.047L61.6149 22.0344L61.6191 22.0288L61.6247 22.0175L61.6289 22.0091L61.6346 21.9992L61.6388 21.9908L61.643 21.9809C61.6514 21.9627 61.6585 21.943 61.6655 21.9247L61.6711 21.912L61.6725 21.9064C61.695 21.8417 61.7091 21.7756 61.7161 21.7095L61.7175 21.6913V21.6884L61.7189 21.6702V21.6688V21.6505V21.6491L61.7203 21.6294V21.628L61.7189 21.6097V21.6083V21.5886V21.5872L61.7175 21.5689V21.5675L61.7161 21.5492C61.7091 21.4831 61.695 21.417 61.6725 21.3523L61.6711 21.3453L61.6655 21.3327C61.6585 21.3144 61.6514 21.2961 61.643 21.2778L61.6388 21.268L61.6346 21.2595L61.6289 21.2483L61.6247 21.2413L61.6191 21.23L61.6149 21.223L61.6078 21.2103L61.605 21.2061L61.5966 21.192L61.5853 21.1738L61.5839 21.1709L61.5741 21.1555L61.5727 21.1541L61.5614 21.1386L61.5488 21.1217V21.1203L61.5361 21.1048L61.5235 21.0894L61.5221 21.088L61.5207 21.0852L61.4953 21.0584V21.057L61.4813 21.043L61.4799 21.0416L61.4672 21.0289L61.4658 21.0275L61.4517 21.0134H61.4503L61.4236 20.9881L61.4208 20.9867L61.4194 20.9853L61.4039 20.9727L61.3885 20.96H61.3871L61.3702 20.9473L61.3547 20.9361L61.3533 20.9347L61.3378 20.9248L61.335 20.9234L61.3167 20.9122L61.3027 20.9038L61.2985 20.9009L61.2858 20.8939L36.2813 6.45735C36.0211 6.27172 35.6653 6.2436 35.37 6.41375L35.3728 6.41797L10.2994 20.8939Z" fill="#D6E3FF"/>
</g>
<defs>
<clipPath id="clip0_11580_10673">
<rect width="72" height="72" fill="white"/>
</clipPath>
</defs>
</svg>
