<svg width="46" height="45" viewBox="0 0 46 45" fill="none" xmlns="http://www.w3.org/2000/svg">
<path d="M45.3666 15.8003C45.3666 19.9336 43.8166 23.8086 40.7166 26.6503C37.8749 29.4919 33.7416 31.3003 29.6083 31.3003C28.3166 31.3003 27.0249 31.0419 25.7333 30.7836L13.3333 43.4419C12.8166 43.9586 12.2999 44.2169 11.7833 44.2169L3.77494 44.9919H3.51661C2.74161 44.9919 2.22494 44.7336 1.70827 44.2169C1.19161 43.7003 0.933273 42.9253 0.933273 42.1503L1.70827 34.1419C1.70827 33.6253 1.96661 32.8503 2.48327 32.5919L14.8833 20.1919C13.5916 14.7669 14.8833 9.08359 19.0166 5.20859C21.8583 2.36693 25.7333 0.558594 29.8666 0.558594C33.9999 0.558594 37.8749 2.10859 40.7166 5.20859C43.5583 7.79193 45.3666 11.6669 45.3666 15.8003Z" fill="#87ACFB"/>
<path opacity="0.9" d="M45.3666 15.8002C45.3666 19.9335 43.8166 23.8085 40.7166 26.6502C37.8749 29.4919 33.7416 31.3002 29.6083 31.3002C28.3166 31.3002 27.0249 31.0419 25.7333 30.7835L13.3333 43.4419C12.8166 43.9585 12.2999 44.2169 11.7833 44.2169L3.77494 44.9919H3.51661C2.74161 44.9919 2.22494 44.7335 1.70827 44.2169L40.7166 4.9502C43.5583 7.79186 45.3666 11.6669 45.3666 15.8002Z" fill="#A3C0FF"/>
<path d="M30.1667 21C33.2042 21 35.6667 18.5376 35.6667 15.5C35.6667 12.4624 33.2042 10 30.1667 10C27.1291 10 24.6667 12.4624 24.6667 15.5C24.6667 18.5376 27.1291 21 30.1667 21Z" fill="white"/>
</svg>
