<svg width="570" height="800" viewBox="0 0 570 800" fill="none" xmlns="http://www.w3.org/2000/svg">
<g clip-path="url(#clip0_11562_3216)">
<path d="M220.826 497.874C195.749 582.634 139.097 654.536 62.5558 698.747C-13.9853 742.957 -104.576 756.102 -190.526 735.471C-276.476 714.839 -351.229 662.005 -399.362 587.869C-447.495 513.732 -465.337 423.948 -449.207 337.041C-433.076 250.134 -384.204 172.733 -312.672 120.807C-241.141 68.8805 -152.407 46.3905 -64.7785 57.9766C22.8505 69.5627 102.69 114.341 158.268 183.073C213.846 251.806 240.924 339.248 233.913 427.362" stroke="url(#paint0_linear_11562_3216)" stroke-width="2"/>
<path d="M348.497 183.598C403.758 300.682 412.133 434.471 371.905 557.533C331.677 680.595 245.893 783.604 132.143 845.439C18.3941 907.274 -114.702 923.249 -239.853 890.089C-365.005 856.929 -472.729 777.146 -540.937 667.1C-609.145 557.054 -632.668 425.083 -606.684 298.247C-580.7 171.411 -507.177 59.3217 -401.191 -15.0383C-295.205 -89.3983 -164.786 -120.394 -36.6774 -101.67C91.4315 -82.946 207.524 -15.921 287.795 85.6618" stroke="url(#paint1_linear_11562_3216)" stroke-width="2"/>
<path d="M486.486 665.731C417.753 820.017 291.91 941.669 135.385 1005.14C-21.1397 1068.61 -196.17 1068.96 -352.949 1006.12C-509.728 943.282 -636.059 822.137 -705.412 668.129C-774.766 514.12 -781.747 339.229 -724.89 180.182C-668.032 21.1357 -551.759 -109.693 -400.487 -184.83C-249.216 -259.967 -74.7147 -273.567 86.3713 -222.774C247.457 -171.981 382.596 -60.7461 463.408 87.571C544.221 235.888 564.42 409.749 519.765 572.643" stroke="url(#paint2_linear_11562_3216)" stroke-width="2"/>
<path d="M315.568 136V88.0008L274 112.001V160L315.568 136Z" fill="#E1E7F3"/>
<path d="M357.138 112.001L315.569 88.0008V136L357.138 160V112.001Z" fill="#E0E6F4"/>
<path d="M315.569 184L357.137 160L315.569 136.001L274 160L315.569 184Z" fill="#F6F7F8"/>
<path d="M315.568 136.001V184L357.137 160V112.001L315.568 136.001Z" fill="#A3C0FF"/>
<path d="M274 160L315.569 184V136.001L274 112.001V160Z" fill="#87ACFB"/>
<path d="M315.569 88.002L274 112.002L315.569 136.001L357.137 112.002L315.569 88.002Z" fill="#D6E3FF"/>
<path d="M507.94 621.499V580L472 600.75V642.249L507.94 621.499Z" fill="#E1E7F3"/>
<path d="M543.879 600.75L507.939 580V621.499L543.879 642.249V600.75Z" fill="#E0E6F4"/>
<path d="M507.939 662.998L543.879 642.248L507.939 621.499L472 642.248L507.939 662.998Z" fill="#F6F7F8"/>
<path d="M507.94 621.501V663L543.879 642.25V600.751L507.94 621.501Z" fill="#E1E7F3"/>
<path d="M472.001 642.25L507.94 663V621.501L472.001 600.751V642.25Z" fill="#BCD0FF"/>
<path d="M507.94 580L472 600.75L507.94 621.499L543.879 600.75L507.94 580Z" fill="#F6F7F8"/>
<path d="M223.939 461.499V431L250.353 446.25V476.749L223.939 461.499Z" fill="#E1E7F3"/>
<path d="M197.526 446.25L223.939 431V461.499L197.526 476.749V446.25Z" fill="#E0E6F4"/>
<path d="M223.939 491.998L197.526 476.748L223.939 461.499L250.353 476.748L223.939 491.998Z" fill="#F6F7F8"/>
<path d="M223.939 461.5V491.999L197.526 476.75V446.25L223.939 461.5Z" fill="#E1E7F3"/>
<path d="M250.353 476.75L223.939 491.999V461.5L250.353 446.25V476.75Z" fill="#BCD0FF"/>
<path d="M223.939 431L250.353 446.25L223.939 461.5L197.526 446.25L223.939 431Z" fill="#F6F7F8"/>
</g>
<defs>
<linearGradient id="paint0_linear_11562_3216" x1="-110" y1="54" x2="-110" y2="746" gradientUnits="userSpaceOnUse">
<stop stop-color="#D6E3FF"/>
<stop offset="1" stop-color="#D6E3FF" stop-opacity="0"/>
</linearGradient>
<linearGradient id="paint1_linear_11562_3216" x1="398" y1="400" x2="210" y2="400" gradientUnits="userSpaceOnUse">
<stop stop-color="#D6E3FF"/>
<stop offset="1" stop-color="#C9D6E3"/>
</linearGradient>
<linearGradient id="paint2_linear_11562_3216" x1="544" y1="400" x2="409.5" y2="400" gradientUnits="userSpaceOnUse">
<stop stop-color="#D6E3FF"/>
<stop offset="1" stop-color="#D6E3FF" stop-opacity="0"/>
</linearGradient>
<clipPath id="clip0_11562_3216">
<rect width="572" height="800" fill="white" transform="translate(-2)"/>
</clipPath>
</defs>
</svg>
