<svg width="160" height="175" viewBox="0 0 160 175" fill="none" xmlns="http://www.w3.org/2000/svg">
<g clip-path="url(#clip0_11562_5548)">
<g clip-path="url(#clip1_11562_5548)">
<path d="M27.159 68.1095C27.3137 85.3191 27.4023 104.93 27.441 115.1C27.2154 118.966 28.3741 125.745 32.3787 132.154C35.4293 137.035 41.0713 143.088 50.6324 144.216C58.4854 145.14 69.1698 146.999 75.4708 150.608C77.5513 151.799 78.5956 152.869 79.1145 153.587V152.814V152.117C78.4328 151.428 77.4353 150.627 75.9672 149.785C70.7974 146.817 62.3111 144.622 50.7436 143.261C41.5612 142.18 36.1303 136.348 33.1925 131.645C29.3023 125.419 28.1791 118.862 28.3999 115.142V115.127V115.112C28.3612 104.946 28.2725 85.3223 28.1178 68.1127C28.1178 68.1095 28.1178 68.1078 28.1178 68.1062H53.509C53.509 59.3127 56.2599 51.0402 61.2556 44.8144C66.2755 38.5563 72.9601 35.1112 80.0765 35.1112C87.193 35.1112 93.8776 38.558 98.8975 44.8144C103.893 51.0402 106.644 59.3127 106.644 68.1062H132.035C131.879 85.3739 131.792 104.969 131.753 115.114V115.129V115.143C131.974 118.866 130.852 125.421 126.961 131.646C124.023 136.35 118.592 142.18 109.409 143.261C97.842 144.622 89.3557 146.817 84.1859 149.785C82.7211 150.625 81.7235 151.425 81.0435 152.114V152.119L80.56 152.559V100.135C94.4578 99.8093 105.684 85.5691 105.684 68.1062C105.684 61.7579 104.199 55.8337 101.644 50.8515C101.639 50.8418 101.632 50.8305 101.627 50.8208C101.521 50.6144 101.413 50.4095 101.304 50.2079C101.302 50.2031 101.299 50.1998 101.297 50.195C100.838 49.3466 100.348 48.5289 99.829 47.7402C99.8225 47.7289 99.8145 47.7192 99.808 47.7095C99.6839 47.5224 99.5599 47.337 99.4325 47.1531C99.4132 47.1257 99.3939 47.0982 99.3745 47.0708C98.9894 46.5192 98.5897 45.9821 98.1756 45.4644C98.1385 45.4192 98.1014 45.3741 98.0644 45.3289C97.9548 45.1934 97.8468 45.0595 97.7356 44.9273C97.7114 44.8983 97.6873 44.8708 97.6631 44.8418C97.3891 44.5176 97.1103 44.2015 96.8267 43.8918C96.8154 43.8805 96.8042 43.8692 96.7929 43.8563C96.6494 43.6999 96.5028 43.5466 96.3561 43.395C96.3223 43.3596 96.2869 43.3257 96.2514 43.2902C95.9678 43.0015 95.6809 42.7176 95.3876 42.4434C95.328 42.387 95.2668 42.3337 95.2055 42.2773C95.1008 42.1805 94.996 42.0837 94.8897 41.9886C94.8816 41.9805 94.8719 41.9741 94.8639 41.966C94.3708 41.5273 93.8631 41.1096 93.3442 40.716C93.2137 40.6176 93.0831 40.5209 92.951 40.4257C92.9043 40.3918 92.8591 40.3563 92.8108 40.3225C92.7399 40.2709 92.6674 40.2225 92.5949 40.1709C92.1275 39.8418 91.6521 39.5289 91.167 39.2354C91.0768 39.1805 90.9849 39.1289 90.8931 39.0757C90.6095 38.9096 90.3226 38.7467 90.0325 38.5934C89.9133 38.5305 89.794 38.4709 89.6732 38.4096C89.6006 38.3725 89.5281 38.3338 89.454 38.2967C89.3573 38.2483 89.2574 38.2031 89.1607 38.1563C89.064 38.1096 88.9673 38.0628 88.869 38.0176C88.7739 37.9741 88.6789 37.9338 88.5838 37.8918C88.4822 37.8467 88.3791 37.7999 88.2776 37.7563C88.1744 37.7128 88.0713 37.6725 87.9682 37.6305C87.8715 37.5918 87.7764 37.5515 87.6797 37.5128C87.6298 37.4934 87.5798 37.4757 87.5298 37.4563C87.1785 37.3225 86.824 37.1951 86.4662 37.0805C86.3228 37.0338 86.1778 36.9918 86.0327 36.9483C85.9715 36.9305 85.9119 36.9096 85.8506 36.8918C85.6959 36.8467 85.5412 36.8064 85.3849 36.7644C85.3333 36.7499 85.2802 36.7354 85.2286 36.7225C84.6372 36.5709 84.0393 36.4467 83.4333 36.3467C83.3995 36.3402 83.3641 36.3338 83.3302 36.3289C83.2464 36.316 83.161 36.3047 83.0772 36.2935C82.8742 36.2644 82.6711 36.237 82.468 36.2128C81.9169 36.1483 81.3625 36.1047 80.8017 36.0854C80.56 36.0773 80.3167 36.0709 80.0733 36.0709C79.83 36.0709 79.5866 36.0757 79.3449 36.0854C78.7857 36.1047 78.2297 36.1483 77.6786 36.2128C77.4739 36.237 77.2709 36.2628 77.0694 36.2935C76.9856 36.3064 76.9002 36.316 76.8164 36.3289C76.7826 36.3338 76.7471 36.3418 76.7133 36.3467C76.109 36.4467 75.5095 36.5709 74.9181 36.7225C74.8649 36.7354 74.8133 36.7515 74.7617 36.7644C74.607 36.8064 74.4507 36.8467 74.296 36.8918C74.2348 36.9096 74.1752 36.9289 74.1139 36.9483C73.9689 36.9918 73.8238 37.0354 73.6804 37.0805C73.3227 37.1967 72.9681 37.3225 72.6168 37.4563C72.5668 37.4757 72.5169 37.4934 72.4669 37.5128C72.3702 37.5499 72.2752 37.5918 72.1785 37.6305C72.0753 37.6725 71.9722 37.7128 71.8691 37.7563C71.7659 37.7999 71.6644 37.8467 71.5629 37.8918C71.4678 37.9338 71.3727 37.9741 71.2776 38.0176C71.1793 38.0628 71.0843 38.1096 70.9859 38.1563C70.8876 38.2031 70.7893 38.2483 70.6927 38.2967C70.6185 38.3338 70.546 38.3725 70.4735 38.4096C70.3542 38.4709 70.2334 38.5305 70.1141 38.5934C69.824 38.7467 69.5372 38.9096 69.2536 39.0757C69.1617 39.1289 69.0699 39.1805 68.9796 39.2354C68.4945 39.5289 68.0191 39.8418 67.5518 40.1709C67.4793 40.2209 67.4068 40.2709 67.3358 40.3225C67.2891 40.3563 67.2424 40.3918 67.1956 40.4257C67.0651 40.5225 66.933 40.6176 66.8024 40.716C66.2835 41.1112 65.7775 41.5289 65.2828 41.966C65.2747 41.9741 65.265 41.9805 65.257 41.9886C65.1506 42.0837 65.0459 42.1805 64.9411 42.2773C64.8815 42.3321 64.8203 42.387 64.759 42.4434C64.4657 42.7176 64.1789 43.0015 63.8952 43.2902C63.8614 43.3257 63.826 43.3596 63.7905 43.395C63.6439 43.5466 63.4988 43.7015 63.3538 43.8563C63.3425 43.8676 63.3312 43.8789 63.3199 43.8918C63.0347 44.1999 62.7559 44.5176 62.4836 44.8418C62.4594 44.8708 62.4352 44.8983 62.411 44.9273C61.8389 45.6095 61.2926 46.3257 60.7721 47.0708C60.7528 47.0982 60.7334 47.1257 60.7141 47.1531C60.5868 47.337 60.4627 47.5224 60.3386 47.7095C60.3322 47.7208 60.3241 47.7305 60.3177 47.7402C59.7988 48.5273 59.3072 49.3466 58.8496 50.195C58.848 50.1998 58.8447 50.2031 58.8431 50.2079C58.7335 50.4111 58.6256 50.616 58.5192 50.8208C58.5144 50.8305 58.5079 50.8418 58.5031 50.8515C55.9472 55.8353 54.463 61.7579 54.463 68.1062C54.463 85.5691 65.6905 99.8126 79.5899 100.135V152.561L79.1064 152.119V153.588H81.0402V153.582C81.5608 152.864 82.6083 151.795 84.6871 150.604C90.9898 146.998 101.669 145.14 109.519 144.216C119.08 143.09 124.722 137.037 127.773 132.156C131.779 125.746 132.936 118.967 132.71 115.101C132.749 104.953 132.836 85.3691 132.992 68.1014C132.791 51.6821 132.68 42.637 143.345 33.158L144.043 32.5386L143.134 32.3306C135.861 30.6677 130.309 28.1064 126.163 24.5016C122.466 21.2871 120.178 17.5322 117.962 13.9C117.14 12.5516 116.289 11.1581 115.377 9.80484L115.148 9.46614L114.777 9.6371C107.347 13.0677 100.49 13.7419 94.3933 11.6403C89.2961 9.88388 84.6081 6.14357 80.4585 0.527461L80.0717 0.00488281L79.6849 0.527461C75.5337 6.14518 70.8457 9.88388 65.7485 11.6403C59.6521 13.7419 52.7951 13.0677 45.3644 9.6371L44.9937 9.46614L44.7649 9.80484C43.8527 11.1581 43.0019 12.5532 42.18 13.9016C39.9658 17.5338 37.6758 21.2887 33.9789 24.5032C29.8325 28.1096 24.2808 30.6693 17.008 32.3322L16.0991 32.5402L16.7969 33.1596C27.462 42.6386 27.3508 51.6837 27.1493 68.1143L27.159 68.1095ZM78.1798 80.2949L76.2975 93.19L74.6248 91.6852L77.1806 80.0949C75.7738 79.7546 74.462 79.1723 73.2888 78.3949L68.9732 84.8594H67.1489L72.5266 77.8449C72.3493 77.7078 72.1769 77.5643 72.0077 77.4175L65.6695 84.6513H63.5456V82.5255L70.7732 76.182C70.6266 76.0126 70.4848 75.8401 70.3462 75.6627L63.3393 81.0433V79.2175L63.3683 79.1981L69.7966 74.8997C68.9409 73.6078 68.3205 72.1465 68.0014 70.5772L60.3902 72.0917L59.101 70.7998L67.8531 69.6465C67.8258 69.4256 67.8032 69.2014 67.7871 68.9772L58.2001 69.6062L56.6982 68.103L58.2001 66.5998H58.2307L67.7871 67.2288C67.8032 67.0046 67.8241 66.7804 67.8531 66.5595L59.1026 65.4062L60.3918 64.1143L68.003 65.6288C68.3237 64.0595 68.9441 62.5998 69.7983 61.3079L63.3425 56.9901V55.1643L70.3478 60.5434C70.4848 60.3659 70.6282 60.1934 70.7748 60.024L63.5488 53.6805V51.5547H65.6728L72.0093 58.7869C72.1785 58.6401 72.3509 58.4982 72.5282 58.3595L67.1521 51.3482H68.9764L68.9957 51.3773L73.2904 57.8095C74.4846 57.0176 75.8254 56.4289 77.2612 56.0918L74.6151 44.1208L76.2862 42.616L78.2314 55.9014C78.4811 55.8643 78.7358 55.8353 78.9904 55.8127L77.9445 41.4725L79.9235 39.6886L81.904 41.4725V41.4999L80.8662 55.7901C81.1224 55.8063 81.377 55.8321 81.6301 55.8627L83.5639 42.6128L85.2366 44.1176L85.2302 44.1499L82.6115 56.024C84.1569 56.3482 85.596 56.9627 86.8723 57.8079L91.1864 51.3466H93.0106L87.6362 58.3579C87.8135 58.495 87.9859 58.6385 88.1551 58.7853L94.4932 51.5531H96.6156V53.6789L96.593 53.6982L89.3895 60.0208C89.5362 60.1901 89.678 60.3627 89.8166 60.5401L96.8219 55.1595V56.9853L90.3661 61.303C91.2218 62.595 91.8423 64.0546 92.1614 65.624L99.771 64.1095L101.06 65.4014L92.3112 66.5546C92.3386 66.7756 92.3612 66.9998 92.3773 67.224L101.963 66.5949L103.465 68.0982L101.963 69.6014H101.932L92.3773 68.9724C92.3612 69.1965 92.3402 69.4207 92.3112 69.6417L101.062 70.7949L99.7726 72.0869L92.163 70.5723C91.8423 72.1417 91.2218 73.603 90.3661 74.8949L96.8251 79.2142V81.0401L96.7155 80.9578L89.8166 75.6594C89.6796 75.8368 89.5362 76.0094 89.3895 76.1788L96.6172 82.5223V84.6481H94.4932L94.4739 84.6255L88.1551 77.4143C87.9859 77.561 87.8135 77.703 87.6362 77.8417L93.0122 84.8545H91.188L91.1687 84.8255L86.874 78.3917C85.6234 79.2207 84.2149 79.8271 82.7033 80.1562L85.2511 91.6819L83.58 93.1868L81.6977 80.3304C81.4367 80.3642 81.1724 80.3917 80.9065 80.4094L81.9217 94.3287L81.9008 94.3481L79.9412 96.1142L77.9606 94.3303V94.3029L78.9727 80.3884C78.7084 80.3643 78.4441 80.3352 78.1846 80.2949H78.1798ZM46.7841 56.7514L40.8521 53.616L34.9201 56.7514L36.0643 50.1531L36.0369 50.1676L35.9837 50.066L35.9901 50.0628L31.2539 45.4595L37.8949 44.5063L40.8521 38.4789L43.8092 44.5063L50.4503 45.4595L45.6367 50.1369L46.7841 56.753V56.7514ZM86.0521 30.2741L80.0814 27.1177L74.1107 30.2741L75.2629 23.629L75.2468 23.5967L70.4219 18.9064L77.1065 17.9467L80.083 11.8806L83.0595 17.9467L89.7441 18.9064L84.8998 23.6145L86.0537 30.2725L86.0521 30.2741ZM125.315 56.7514L119.383 53.616L113.451 56.7514L114.595 50.1531L114.568 50.1676L114.542 50.116L114.516 50.0644L114.523 50.0611L109.787 45.4579L116.428 44.5047L119.385 38.4773L122.344 44.5047L128.985 45.4579L124.171 50.1353L125.318 56.7514H125.315Z" fill="white"/>
<path d="M29.0638 155.332C28.9236 155.233 28.6206 155.079 28.1549 154.867L27.5312 154.585L26.711 156.398L27.4168 156.719C27.9245 156.949 28.279 157.07 28.482 157.08C28.6835 157.091 28.8656 157.048 29.0267 156.949C29.1879 156.851 29.312 156.708 29.3974 156.519C29.5021 156.287 29.5215 156.064 29.4538 155.851C29.3861 155.638 29.2556 155.466 29.0638 155.333V155.332Z" fill="white"/>
<path d="M42.2702 160.784C42.0849 160.698 41.6724 160.621 41.0326 160.555L39.8949 160.438L39.7031 162.305L41.0068 162.438C41.5144 162.49 41.8367 162.509 41.9769 162.495C42.1897 162.479 42.3701 162.403 42.5168 162.269C42.6634 162.135 42.7489 161.945 42.7746 161.697C42.7956 161.487 42.7634 161.305 42.6763 161.148C42.5893 160.992 42.454 160.871 42.2686 160.784H42.2702Z" fill="white"/>
<path d="M117.472 158.301C117.308 158.151 117.108 158.065 116.876 158.046C116.705 158.03 116.365 158.047 115.857 158.097L115.176 158.164L115.369 160.146L116.139 160.07C116.695 160.017 117.063 159.943 117.241 159.852C117.42 159.762 117.557 159.631 117.648 159.467C117.738 159.301 117.775 159.115 117.754 158.909C117.73 158.654 117.635 158.452 117.469 158.302L117.472 158.301Z" fill="white"/>
<path d="M96.1241 161.145C95.9371 161.022 95.7277 160.969 95.4956 160.987C95.3232 160.998 94.9912 161.067 94.4981 161.196L93.8357 161.369L94.3353 163.296L95.0847 163.101C95.6245 162.961 95.9774 162.832 96.1402 162.714C96.3046 162.596 96.4174 162.448 96.4818 162.269C96.5463 162.092 96.5528 161.901 96.4996 161.701C96.4351 161.454 96.311 161.269 96.1241 161.146V161.145Z" fill="white"/>
<path d="M63.9678 163.913L65.8194 164.39L65.5358 161.629L63.9678 163.913Z" fill="white"/>
<path d="M42.1897 157.893C42.0511 157.862 41.6514 157.814 40.9891 157.744L40.1801 157.662L40.0141 159.277L40.9375 159.372C41.4854 159.428 41.8287 159.456 41.9624 159.452C42.2058 159.449 42.404 159.385 42.5571 159.26C42.7086 159.136 42.7972 158.962 42.8198 158.736C42.8423 158.52 42.8004 158.34 42.6957 158.191C42.5909 158.044 42.4217 157.944 42.1897 157.891V157.893Z" fill="white"/>
<path d="M139.634 132.011C139.634 132.011 141.472 144.782 130.266 150.13C125.586 152.364 121.813 152.798 115.077 153.145C110.099 153.404 105.69 153.751 103.268 154.328C91.1719 157.211 80.7695 160.578 80.0814 160.803C79.3932 160.578 68.9909 157.211 56.8948 154.328C54.4727 153.751 50.0635 153.406 45.0856 153.145C38.3494 152.798 34.5784 152.364 29.897 150.13C18.6904 144.782 20.5292 132.011 20.5292 132.011H20.5276L8.98746 141.656C8.80697 141.759 9.36939 163.365 34.0289 166.117C53.3575 168.261 52.9337 167.272 62.635 169.799C72.1704 172.282 79.8284 174.09 80.0798 174.328C80.3296 174.09 87.9891 172.283 97.5245 169.799C107.226 167.274 106.8 168.262 126.131 166.117C150.789 163.365 151.351 141.759 151.172 141.656L139.632 132.011H139.634ZM17.4737 150.278C17.3948 150.561 17.2111 150.986 16.921 151.561L16.199 153.004L15.3175 151.557L16.0878 149.888C16.3634 149.293 16.5278 148.903 16.5793 148.714C16.6309 148.525 16.6406 148.354 16.6067 148.198C16.5745 148.041 16.473 147.825 16.3038 147.548L16.1539 147.303L13.6544 148.827L12.918 147.617L18.9032 143.966L20.4534 146.511C20.8434 147.151 21.0739 147.649 21.1416 148.004C21.2109 148.361 21.1609 148.709 20.9917 149.051C20.8225 149.393 20.5614 149.672 20.2085 149.888C19.7589 150.162 19.3076 150.256 18.8548 150.17C18.402 150.085 17.9765 149.803 17.5801 149.324C17.5865 149.678 17.5511 149.996 17.4721 150.277L17.4737 150.278ZM22.5114 157.14L21.741 158.036L17.6977 154.557L22.268 149.236L26.2098 152.628L25.4363 153.528L22.5678 151.061L21.5541 152.24L24.2228 154.536L23.4525 155.433L20.7838 153.136L19.5397 154.585L22.5097 157.14H22.5114ZM30.7333 157.103C30.5561 157.495 30.3353 157.793 30.0726 157.996C29.8099 158.199 29.5328 158.327 29.2443 158.38C28.9558 158.433 28.6883 158.433 28.4385 158.38C28.1033 158.301 27.6441 158.13 27.0591 157.865L26.2179 157.485L25.1269 159.896L23.8376 159.311L26.7303 152.92L28.7995 153.859C29.5843 154.215 30.0807 154.478 30.2886 154.651C30.6109 154.912 30.8236 155.261 30.9251 155.693C31.0266 156.127 30.9622 156.596 30.7317 157.106L30.7333 157.103ZM36.8007 159.93C36.638 160.756 36.4849 161.333 36.343 161.659C36.2012 161.985 36.0046 162.246 35.7565 162.441C35.5083 162.636 35.2021 162.77 34.8363 162.843C34.4705 162.915 34.016 162.898 33.4729 162.79C32.8154 162.659 32.3336 162.485 32.0242 162.267C31.7148 162.048 31.4859 161.798 31.336 161.517C31.1862 161.235 31.1072 160.956 31.0975 160.677C31.0846 160.264 31.1539 159.674 31.307 158.903L32.0322 155.232L33.4197 155.506L32.6833 159.233C32.5672 159.825 32.5076 160.212 32.5076 160.395C32.5108 160.688 32.6075 160.943 32.7977 161.157C32.9879 161.372 33.2763 161.519 33.6647 161.595C34.0595 161.672 34.3722 161.651 34.6042 161.528C34.8363 161.407 34.9958 161.233 35.0828 161.006C35.1699 160.778 35.2665 160.393 35.3745 159.849L36.1271 156.041L37.5162 156.315L36.8023 159.93H36.8007ZM44.2234 161.912C44.1912 162.23 44.0848 162.53 43.9075 162.815C43.7287 163.101 43.503 163.319 43.2291 163.472C42.9551 163.625 42.6296 163.703 42.2509 163.706C42.014 163.706 41.4451 163.665 40.5475 163.578L38.1737 163.335L38.8876 156.356L41.6756 156.643C42.2267 156.699 42.636 156.765 42.9036 156.84C43.1695 156.914 43.4031 157.035 43.6013 157.203C43.8012 157.37 43.9591 157.583 44.0767 157.841C44.1944 158.099 44.2379 158.378 44.2073 158.68C44.1734 159.007 44.0558 159.298 43.8511 159.553C43.6465 159.807 43.387 159.988 43.0728 160.093C43.4853 160.261 43.7899 160.506 43.9881 160.827C44.1863 161.149 44.2637 161.511 44.2234 161.914V161.912ZM50.3794 164.498L45.4626 164.069L46.0654 157.136L47.4754 157.259L46.9743 163.014L50.4809 163.319L50.3778 164.496L50.3794 164.498ZM52.9014 164.704L51.4914 164.582L52.0941 157.591L53.5041 157.714L52.9014 164.704ZM58.7174 165.474L57.346 161.914L56.0246 162.886L55.6829 164.98L54.2857 164.751L55.4138 157.827L56.811 158.054L56.3098 161.13L59.6328 158.515L61.5118 158.822L58.4676 161.093L60.5255 165.769L58.7174 165.474ZM66.1594 167.344L65.9644 165.648L63.2506 164.946L62.2918 166.344L60.8382 165.969L65.2344 159.859L66.6832 160.233L67.6485 167.73L66.1578 167.344H66.1594ZM78.1701 170.038L76.7632 169.846L74.5812 164.93L73.964 169.464L72.6619 169.285L73.6095 162.333L74.9745 162.519L77.1855 167.549L77.8188 162.907L79.1209 163.085L78.1733 170.036L78.1701 170.038ZM86.0472 169.362C85.5106 169.638 84.9546 169.807 84.3809 169.867C83.6509 169.944 82.9998 169.857 82.4245 169.609C81.8508 169.361 81.3964 168.965 81.0644 168.425C80.7324 167.885 80.531 167.28 80.4601 166.611C80.3843 165.885 80.4681 165.222 80.7131 164.625C80.958 164.028 81.3577 163.548 81.9121 163.185C82.3343 162.906 82.879 162.732 83.5445 162.661C84.4099 162.569 85.1061 162.68 85.6298 162.991C86.1552 163.303 86.521 163.772 86.7273 164.399L85.3575 164.809C85.2237 164.477 85.0094 164.225 84.7177 164.056C84.426 163.886 84.0763 163.822 83.6718 163.865C83.0562 163.93 82.5889 164.177 82.2666 164.606C81.9443 165.035 81.8234 165.633 81.9056 166.401C81.9926 167.23 82.2424 167.832 82.6534 168.206C83.0643 168.582 83.5687 168.738 84.1634 168.675C84.4583 168.644 84.7483 168.556 85.032 168.407C85.3156 168.261 85.5557 168.093 85.7507 167.906L85.6572 167.02L84.0457 167.19L83.9216 166.014L86.9561 165.694L87.2478 168.474C86.9835 168.79 86.5823 169.086 86.0456 169.364L86.0472 169.362ZM97.9515 162.425C97.8742 162.749 97.7388 163.022 97.5487 163.244C97.3569 163.467 97.149 163.636 96.9218 163.751C96.6108 163.901 96.1466 164.056 95.5262 164.217L94.6334 164.449L95.2958 167.011L93.926 167.365L92.1694 160.574L94.3675 160.004C95.2007 159.788 95.7534 159.682 96.0226 159.683C96.4383 159.683 96.8203 159.822 97.1716 160.095C97.5229 160.369 97.7678 160.775 97.908 161.315C98.016 161.732 98.0305 162.103 97.9532 162.425H97.9515ZM100.72 165.656L99.3133 158.782L100.699 158.498L102.106 165.372L100.719 165.656H100.72ZM104.009 165.024L103.323 158.099L104.731 157.959L105.302 163.707L108.804 163.359L108.92 164.535L104.009 165.024ZM110.608 164.42L110.015 157.43L111.425 157.311L112.019 164.301L110.608 164.42ZM119.075 159.851C118.948 160.159 118.772 160.407 118.55 160.598C118.326 160.788 118.094 160.922 117.852 160.999C117.522 161.099 117.038 161.18 116.4 161.241L115.482 161.332L115.738 163.965L114.329 164.103L113.649 157.119L115.91 156.898C116.768 156.814 117.328 156.795 117.596 156.84C118.005 156.906 118.363 157.101 118.666 157.425C118.971 157.749 119.15 158.19 119.203 158.746C119.245 159.175 119.203 159.543 119.075 159.851ZM121.527 163.378L120.769 156.403L122.176 156.249L122.935 163.224L121.528 163.377L121.527 163.378ZM129.694 161.965L125.853 158.203L126.949 162.645L125.673 162.961L123.992 156.149L125.33 155.819L129.238 159.678L128.114 155.13L129.391 154.814L131.072 161.625L129.692 161.965H129.694ZM137.78 158.369L136.472 157.272L134.021 158.633L134.288 160.307L132.975 161.036L131.961 153.575L133.27 152.848L139.126 157.619L137.779 158.367L137.78 158.369ZM143.406 153.175C143.25 153.59 142.963 154.019 142.546 154.462C141.938 155.107 141.321 155.462 140.697 155.527C140.074 155.591 139.443 155.388 138.81 154.917L139.658 153.824C140.051 154.08 140.414 154.191 140.746 154.156C141.077 154.12 141.39 153.946 141.685 153.632C141.998 153.299 142.164 152.983 142.181 152.683C142.199 152.383 142.115 152.143 141.927 151.967C141.806 151.853 141.671 151.791 141.519 151.783C141.368 151.774 141.177 151.828 140.949 151.946C140.794 152.027 140.46 152.232 139.948 152.561C139.29 152.983 138.757 153.212 138.348 153.248C137.772 153.296 137.282 153.13 136.878 152.749C136.618 152.504 136.444 152.201 136.357 151.84C136.27 151.478 136.298 151.104 136.441 150.714C136.585 150.325 136.841 149.935 137.21 149.541C137.814 148.901 138.409 148.551 138.994 148.491C139.579 148.433 140.114 148.616 140.597 149.041L139.672 150.114C139.369 149.911 139.09 149.827 138.839 149.864C138.588 149.901 138.325 150.064 138.051 150.354C137.769 150.654 137.609 150.946 137.572 151.232C137.548 151.416 137.603 151.569 137.735 151.695C137.856 151.809 138.008 151.854 138.19 151.833C138.422 151.806 138.833 151.598 139.422 151.207C140.012 150.819 140.484 150.562 140.837 150.441C141.19 150.32 141.54 150.295 141.888 150.367C142.235 150.438 142.57 150.627 142.892 150.93C143.184 151.206 143.382 151.546 143.483 151.949C143.585 152.353 143.559 152.762 143.403 153.175H143.406Z" fill="white"/>
<path d="M18.3923 148.658C18.5293 148.772 18.6824 148.834 18.8516 148.843C19.0208 148.851 19.1965 148.801 19.3753 148.692C19.5768 148.569 19.7073 148.416 19.7653 148.232C19.8233 148.05 19.8088 147.85 19.7218 147.634C19.6751 147.527 19.5026 147.229 19.2045 146.738L18.6292 145.795L17.1095 146.721L17.6542 147.616C18.0072 148.197 18.2521 148.543 18.3891 148.658H18.3923Z" fill="white"/>
<path d="M135.505 156.459L133.399 154.652L133.832 157.388L135.505 156.459Z" fill="white"/>
<path d="M16.6696 124.766C16.6696 124.766 18.1554 124.727 18.3069 125.919C18.3069 125.919 18.4971 126.937 16.0395 128.895L12.2621 131.855L10.0478 133.19C10.0478 133.19 12.6311 135.022 12.7729 137.066L19.9361 130.83C19.9361 130.83 21.2109 129.743 22.3035 131.564C22.3035 131.564 23.4251 136.209 25.367 133.203C25.367 133.203 26.2324 132.613 25.6023 130.282C25.6023 130.282 23.7845 124.2 17.73 122.198C17.73 122.198 14.9533 122.751 14.689 123.216C14.689 123.216 14.2797 125 16.668 124.764L16.6696 124.766Z" fill="white"/>
<path d="M10.9036 115.189L2.43662 122.77C2.43662 122.77 -0.407715 126.333 0.0499571 129.088C0.456061 131.538 2.80888 133.844 5.47918 133.515C9.59178 133.007 16.7518 126.352 16.7518 126.352C12.8519 126.397 10.5232 123.712 10.9036 115.189Z" fill="white"/>
<path d="M134.229 130.156C133.598 132.487 134.464 133.077 134.464 133.077C136.406 136.084 137.527 131.439 137.527 131.439C138.62 129.618 139.895 130.705 139.895 130.705L147.058 136.94C147.2 134.897 149.783 133.065 149.783 133.065L147.569 131.729L143.791 128.769C141.334 126.811 141.524 125.794 141.524 125.794C141.675 124.602 143.161 124.64 143.161 124.64C145.549 124.876 145.14 123.092 145.14 123.092C144.876 122.627 142.099 122.074 142.099 122.074C136.045 124.077 134.227 130.158 134.227 130.158L134.229 130.156Z" fill="white"/>
<path d="M157.563 122.932L149.064 115.396C149.445 123.919 147.126 126.698 143.25 126.514C143.29 126.743 150.41 133.171 154.522 133.677C157.193 134.006 159.546 131.7 159.952 129.25C160.408 126.495 157.565 122.932 157.565 122.932H157.563Z" fill="white"/>
<path d="M119.942 113.801C119.825 113.432 119.527 113.05 119.18 112.824C118.792 112.571 118.424 112.496 118.147 112.461C117.944 112.433 117.747 112.425 117.572 112.419C117.464 112.414 117.362 112.409 117.28 112.401C117.238 112.396 117.172 112.392 117.084 112.392C116.811 112.392 116.526 112.446 116.258 112.55C115.872 112.7 115.322 113.313 115.127 113.813C114.926 114.33 114.979 114.748 115.034 115.188C115.101 115.737 115.49 116.375 115.567 116.498C115.611 116.566 115.677 116.662 115.752 116.772C115.989 117.117 116.347 117.638 116.45 117.956C116.597 118.408 116.574 118.901 116.386 119.309C116.218 119.674 115.778 120.103 115.546 120.298C115.401 120.421 114.914 120.529 114.505 120.529C114.437 120.529 114.376 120.525 114.323 120.521C114.196 120.506 113.554 120.211 113.411 119.985C113.411 119.971 113.411 119.932 113.414 119.9C113.416 119.862 113.419 119.819 113.421 119.764C113.424 119.624 113.395 119.442 113.155 119.154C112.935 118.893 112.613 118.65 112.185 118.333C111.716 117.99 111.206 117.898 111.002 117.898C110.99 117.898 110.979 117.898 110.969 117.898C110.897 117.901 110.462 117.904 109.912 117.904C109.363 117.904 108.907 117.901 108.802 117.898C108.531 117.888 108.181 117.832 108.038 117.74C107.869 117.633 107.126 116.883 107.015 116.761C106.936 116.672 106.491 115.896 106.439 115.717C106.385 115.525 106.423 115.332 106.465 115.203C106.491 115.124 106.536 114.99 106.61 114.792C106.634 114.725 106.705 114.617 106.899 114.479C106.989 114.414 107.227 114.177 107.485 113.74C107.558 113.617 107.619 113.425 107.638 113.264C107.64 113.264 107.643 113.264 107.645 113.264H107.671H107.69C107.714 113.264 107.742 113.264 107.774 113.256C107.982 113.214 108.144 113.108 108.341 112.964C108.338 112.971 108.333 112.979 108.33 112.985C108.298 113.043 108.304 113.113 108.344 113.164C108.375 113.203 108.422 113.224 108.47 113.224C108.486 113.224 108.501 113.222 108.517 113.217C108.828 113.125 109.569 112.601 109.68 112.461C109.729 112.401 109.801 112.309 109.845 112.18C109.935 112.285 110.11 112.324 110.112 112.324C110.254 112.353 110.394 112.367 110.526 112.367C110.646 112.367 110.753 112.354 110.831 112.333C111.037 112.275 111.205 112.19 111.506 111.9C111.556 111.851 111.569 111.777 111.54 111.716C111.513 111.659 111.456 111.622 111.393 111.622C111.387 111.622 111.382 111.622 111.376 111.622C111.353 111.624 111.326 111.625 111.295 111.625C111.206 111.625 111.105 111.614 111.018 111.596C110.994 111.592 110.966 111.582 110.942 111.575C110.915 111.567 110.889 111.559 110.871 111.554C110.86 111.551 110.847 111.551 110.836 111.551C110.829 111.551 110.823 111.551 110.816 111.551C110.802 111.537 110.784 111.527 110.763 111.519C110.637 111.472 110.544 111.427 110.467 111.372C110.494 111.372 110.521 111.364 110.546 111.35C110.57 111.372 110.599 111.387 110.633 111.392C110.733 111.406 110.824 111.414 110.911 111.414C110.963 111.414 111.011 111.413 111.066 111.406C111.234 111.39 111.772 111.263 112.022 110.99C112.062 110.945 112.075 110.882 112.054 110.824C112.041 110.79 112.019 110.763 111.99 110.745C112.18 110.719 112.334 110.645 112.418 110.604L112.441 110.595C112.662 110.492 113.145 110.067 113.301 109.809C113.38 109.68 113.529 109.379 113.635 109.146C113.664 109.082 113.648 109.006 113.596 108.959C113.566 108.932 113.527 108.919 113.488 108.919C113.466 108.919 113.443 108.924 113.422 108.933C113.421 108.933 113.417 108.933 113.416 108.933C113.322 108.933 113.13 108.872 113.06 108.84C113.031 108.827 112.953 108.751 112.906 108.708C112.879 108.682 112.853 108.656 112.826 108.634C112.894 108.651 112.953 108.659 113.008 108.659C113.116 108.659 113.187 108.627 113.243 108.603L113.266 108.593C113.462 108.509 113.569 108.375 113.59 108.187C113.596 108.135 113.577 108.084 113.537 108.048C113.506 108.021 113.469 108.008 113.429 108.008C113.416 108.008 113.404 108.008 113.392 108.013C113.38 108.016 113.369 108.016 113.358 108.016C113.293 108.016 113.229 107.974 113.187 107.937C113.156 107.911 113.105 107.85 113.026 107.703C113.019 107.68 113.006 107.627 112.997 107.582C112.977 107.501 112.96 107.427 112.942 107.358C112.985 107.374 113.034 107.38 113.089 107.38C113.213 107.38 113.345 107.338 113.388 107.316C113.479 107.269 113.69 107.135 113.732 106.884C113.741 106.829 113.72 106.774 113.68 106.737C113.649 106.709 113.612 106.695 113.572 106.695C113.558 106.695 113.543 106.696 113.529 106.701C113.529 106.701 113.524 106.701 113.519 106.701H113.516C113.366 106.701 113.056 106.619 112.997 106.572C112.932 106.521 112.903 106.479 112.865 106.422C112.847 106.395 112.828 106.367 112.805 106.338C112.736 106.248 112.499 105.964 112.412 105.874C112.367 105.817 112.305 105.763 112.247 105.714C112.355 105.753 112.481 105.798 112.544 105.817C112.61 105.837 112.679 105.846 112.75 105.846C112.894 105.846 113.021 105.806 113.103 105.772C113.106 105.772 113.111 105.769 113.114 105.767C113.235 105.708 113.334 105.598 113.395 105.517C113.52 105.351 113.519 105.035 113.462 104.88C113.446 104.838 113.414 104.804 113.372 104.787C113.353 104.779 113.332 104.775 113.311 104.775C113.295 104.775 113.277 104.779 113.263 104.784C113.232 104.784 113.158 104.771 112.977 104.713C112.884 104.682 112.749 104.542 112.665 104.425C112.565 104.288 112.08 103.977 111.98 103.919C112.102 103.942 112.207 103.958 112.278 103.958C112.302 103.958 112.321 103.956 112.341 103.953C112.347 103.953 112.354 103.95 112.362 103.948C112.6 103.867 112.67 103.54 112.639 103.345C112.628 103.267 112.562 103.209 112.483 103.208C112.339 103.204 112.162 103.161 111.99 103.117C111.907 103.096 111.83 103.077 111.756 103.063C111.67 103.045 111.546 103.003 111.416 102.959C111.35 102.937 111.279 102.913 111.21 102.89C111.268 102.869 111.321 102.834 111.363 102.787C111.435 102.706 111.472 102.601 111.466 102.488C111.463 102.437 111.435 102.39 111.392 102.363C111.363 102.343 111.327 102.334 111.29 102.334C111.243 102.334 111.203 102.35 111.16 102.366C111.105 102.387 111.037 102.413 110.95 102.413C110.905 102.413 110.857 102.404 110.808 102.39C110.803 102.39 110.799 102.387 110.792 102.387C110.639 102.356 110.433 102.253 110.305 102.169C110.289 102.158 110.27 102.145 110.251 102.132C110.093 102.025 109.827 101.845 109.377 101.682C109.248 101.635 109.111 101.609 108.971 101.604C108.97 101.604 108.968 101.604 108.966 101.604C108.965 101.604 108.963 101.604 108.96 101.604C108.949 101.604 108.939 101.604 108.928 101.604C108.615 101.604 108.36 101.708 108.252 101.751C108.24 101.756 108.23 101.761 108.223 101.763C108.112 101.803 107.634 102.084 107.366 102.374C107.2 102.554 107.087 102.693 107.134 102.843C107.137 102.854 107.142 102.866 107.147 102.877C107.089 102.872 107.031 102.869 106.973 102.869C106.784 102.869 106.493 102.9 106.162 103.042C106.067 103.072 105.943 103.088 105.708 103.096C105.688 103.096 105.669 103.096 105.651 103.096C105.535 103.096 105.466 103.084 105.398 103.069C105.361 103.063 105.327 103.056 105.292 103.051C105.278 103.05 105.253 103.048 105.221 103.048C105.029 103.048 104.443 103.085 104.309 103.108C104.298 103.109 104.264 103.114 104.182 103.114C103.954 103.114 103.653 103.08 103.585 103.053C103.479 103.011 103.25 103 103.144 103C103.031 103 102.944 103.009 102.884 103.027C102.723 103.077 102.591 103.24 102.564 103.361C102.548 103.434 102.546 103.577 102.736 103.73C102.752 103.743 102.762 103.758 102.776 103.777C102.793 103.8 102.815 103.83 102.849 103.856C102.718 103.938 102.588 104.137 102.559 104.263C102.52 104.435 102.651 104.696 102.73 104.796C102.791 104.871 102.812 104.904 102.849 105.013C102.878 105.1 102.923 105.232 103.067 105.232C103.116 105.232 103.155 105.213 103.181 105.198C103.187 105.195 103.192 105.192 103.197 105.187L103.223 105.167C103.358 105.063 103.442 105.003 103.473 104.992C103.492 104.985 103.579 104.971 103.703 104.971C103.774 104.971 103.845 104.975 103.911 104.985C104.093 105.013 104.224 105.143 104.269 105.225C104.317 105.322 104.29 105.822 104.262 105.946C104.257 105.971 104.246 106.001 104.228 106.038C104.209 105.966 104.143 105.88 103.938 105.88C103.888 105.88 103.766 105.885 103.679 105.937C103.613 105.972 103.571 106.019 103.534 106.061C103.471 106.13 103.418 106.192 103.202 106.201C103.199 106.201 103.194 106.201 103.191 106.201C103.097 106.213 103.038 106.245 103 106.28C102.962 106.246 102.918 106.238 102.889 106.238C102.872 106.238 102.72 106.245 102.707 106.445C102.707 106.45 102.686 106.887 102.736 107.035C102.797 107.214 102.973 107.413 103.276 107.64C103.379 107.717 103.532 107.753 103.758 107.753C103.784 107.753 103.811 107.753 103.84 107.753C103.846 107.753 103.851 107.753 103.858 107.753C104.1 107.717 104.277 107.629 104.433 107.55C104.499 107.516 104.562 107.485 104.623 107.461L104.655 107.448C104.754 107.409 104.783 107.4 104.815 107.398C104.809 107.445 104.802 107.496 104.815 107.551C104.817 107.559 104.82 107.567 104.821 107.574C104.852 107.654 104.857 107.717 104.86 107.774C104.862 107.804 104.865 107.835 104.87 107.866C104.904 108.034 104.899 108.303 104.87 108.375C104.836 108.445 104.519 108.582 104.232 108.625C104.199 108.63 104.167 108.632 104.132 108.632C103.963 108.632 103.759 108.575 103.508 108.459C103.405 108.413 103.27 108.388 103.105 108.388C102.831 108.388 102.528 108.454 102.398 108.508C102.372 108.469 102.332 108.443 102.283 108.438C102.264 108.437 102.245 108.435 102.224 108.435C101.995 108.435 101.726 108.579 101.545 108.742C101.545 108.742 101.542 108.738 101.542 108.737C101.511 108.7 101.465 108.68 101.42 108.68C101.399 108.68 101.376 108.685 101.355 108.693C101.341 108.7 101.318 108.706 101.292 108.716C101.187 108.751 101.028 108.803 100.893 108.911C100.839 108.954 100.783 109.011 100.731 109.071C100.735 109.032 100.723 108.995 100.701 108.963C100.67 108.921 100.622 108.896 100.57 108.896H100.541H100.507C100.495 108.896 100.483 108.896 100.474 108.896C100.459 108.893 100.411 108.877 100.385 108.867C100.375 108.864 100.366 108.861 100.358 108.858C100.32 108.803 100.248 108.725 100.098 108.717C100.092 108.717 100.082 108.717 100.071 108.717C100.006 108.717 99.8741 108.727 99.692 108.74C99.4003 108.761 98.999 108.788 98.7074 108.788C98.5623 108.788 98.4834 108.782 98.4382 108.774C98.153 108.645 96.9347 107.99 96.7091 107.748C96.6784 107.716 96.6349 107.696 96.5914 107.696C96.5753 107.696 96.5592 107.698 96.5431 107.704C96.498 107.719 96.4609 107.753 96.4432 107.795C96.3723 107.684 96.2997 107.613 96.1998 107.519C95.9887 107.321 95.6068 107.063 94.9928 106.94C94.8026 106.832 94.6141 106.698 94.4449 106.58C94.1919 106.401 93.9727 106.246 93.7922 106.206L93.7664 106.201C93.6923 106.187 93.5553 106.159 93.4022 106.159C93.399 106.159 93.3942 106.159 93.3909 106.159C93.1943 106.164 93.0251 106.295 92.8882 106.4L92.8624 106.419L92.8366 106.438C92.7576 106.498 92.6835 106.554 92.6045 106.675C92.5626 106.74 92.5707 106.824 92.6255 106.879C92.6529 106.906 92.6803 106.943 92.7061 106.977C92.7608 107.05 92.8205 107.129 92.9091 107.159C92.8737 107.198 92.8334 107.246 92.7834 107.303C92.7028 107.396 92.611 107.501 92.5642 107.543C92.5256 107.577 92.5062 107.629 92.5111 107.68C92.5159 107.732 92.5465 107.779 92.5916 107.803C92.6625 107.843 92.7141 107.908 92.7689 107.977C92.8334 108.058 92.8978 108.142 92.9993 108.188C92.9397 108.235 92.8994 108.275 92.8688 108.308C92.8575 108.321 92.8463 108.332 92.8366 108.34C92.7882 108.382 92.7705 108.448 92.7882 108.509C92.8076 108.571 92.8608 108.614 92.9236 108.622C93.1557 108.65 93.4232 108.946 93.5521 109.088C93.5811 109.121 93.6214 109.14 93.6649 109.142C93.7423 109.145 93.8212 109.146 93.905 109.146C94.1677 109.146 94.4546 109.133 94.7092 109.122C94.9219 109.113 95.1249 109.103 95.278 109.103C95.3779 109.103 95.4505 109.106 95.494 109.114C95.4972 109.114 95.502 109.114 95.5069 109.116C95.5729 109.122 95.6358 109.135 95.6922 109.15C95.6858 109.154 95.6793 109.159 95.6729 109.166C95.6277 109.208 95.61 109.271 95.6277 109.329C95.6584 109.429 95.7389 109.519 95.8179 109.604C95.8517 109.642 95.9049 109.7 95.9146 109.722C95.9162 109.727 96.1579 110.287 96.4287 110.511C96.4899 110.563 96.5656 110.63 96.6462 110.703C96.8477 110.883 97.0539 111.071 97.2006 111.14C97.2844 111.179 97.3859 111.214 97.4923 111.251C97.6083 111.292 97.7404 111.337 97.8162 111.38C97.8001 111.403 97.7888 111.43 97.7872 111.459C97.7823 111.506 97.7985 111.553 97.8307 111.587C97.929 111.692 98.0901 111.827 98.3593 111.848C98.4108 111.909 98.5011 111.922 98.5897 111.935C98.6445 111.945 98.6896 111.948 98.7315 111.948C98.7654 111.948 98.7976 111.945 98.8314 111.94C98.8041 111.992 98.7767 112.05 98.7493 112.104C98.7186 112.167 98.6896 112.225 98.6671 112.266C98.6171 112.356 98.5978 112.487 98.5752 112.638C98.5543 112.782 98.5301 112.943 98.4801 113.064C98.4785 113.069 98.4769 113.074 98.4753 113.079C98.4753 113.079 98.4656 113.111 98.4608 113.127C98.456 113.148 98.4544 113.169 98.4576 113.188C98.427 113.188 98.3979 113.188 98.3754 113.185C98.3689 113.185 98.3593 113.185 98.348 113.185C98.3013 113.185 98.2094 113.19 98.0934 113.195C97.9403 113.203 97.7501 113.211 97.626 113.211H97.589C97.452 113.208 97.3972 113.183 97.3279 113.151C97.3053 113.14 97.2812 113.13 97.257 113.121C97.0668 113.04 96.9734 113.003 96.7719 112.975C96.6511 112.961 96.5511 112.948 96.4448 112.948C96.4045 112.948 96.3642 112.95 96.3239 112.953C96.174 112.966 95.9178 113.006 95.7196 113.054C95.5343 113.1 95.4231 113.19 95.3425 113.256C95.3248 113.271 95.307 113.285 95.2893 113.298C95.2893 113.298 95.2877 113.298 95.2861 113.3C95.2797 113.296 95.2732 113.293 95.2668 113.29C95.2506 113.283 95.2345 113.275 95.2152 113.267C95.1217 113.227 95.0041 113.224 94.8913 113.224H94.8607H94.8333C94.7914 113.224 94.764 113.224 94.7543 113.221C94.7204 113.209 94.5464 113.124 94.432 113.067C94.3643 113.033 94.2982 113.001 94.2434 112.975C94.1613 112.937 94.0775 112.919 93.9808 112.919C93.897 112.919 93.8099 112.932 93.7084 112.948C93.652 112.956 93.5908 112.966 93.5199 112.974C93.515 112.974 93.5118 112.974 93.507 112.975C93.2604 113.025 93.1702 113.113 93.0815 113.195C93.0702 113.204 93.059 113.216 93.0477 113.227C92.9333 113.332 92.7931 113.496 92.7334 113.595C92.6819 113.68 92.6754 113.803 92.6722 113.966C92.6722 114.006 92.6706 114.059 92.6674 114.08C92.6384 114.196 92.6674 114.325 92.7415 114.419C92.7528 114.432 92.7657 114.445 92.7802 114.454C92.7963 114.464 92.8269 114.501 92.8543 114.533C92.8817 114.566 92.9139 114.603 92.9526 114.642C92.9832 114.672 93.0251 114.688 93.067 114.688C93.0848 114.688 93.1009 114.685 93.1186 114.68C93.175 114.85 93.3071 115.072 93.3684 115.159C93.399 115.201 93.449 115.225 93.4989 115.225C93.5134 115.225 93.5279 115.224 93.5424 115.219C93.5666 115.213 93.5875 115.201 93.6053 115.185C93.6182 115.263 93.6391 115.332 93.6617 115.379C93.6891 115.435 93.7471 115.469 93.8067 115.469C93.8244 115.469 93.8438 115.466 93.8615 115.459C93.8615 115.459 93.8808 115.453 93.9405 115.453C93.9888 115.453 94.042 115.458 94.0839 115.461C94.1048 115.462 94.1242 115.464 94.1387 115.464C94.1661 115.471 94.1983 115.474 94.2354 115.474C94.3434 115.474 94.4836 115.448 94.5609 115.429C94.6495 115.417 94.7188 115.413 94.7769 115.413C94.8832 115.413 94.9622 115.429 95.0879 115.475C95.1362 115.5 95.1959 115.513 95.2619 115.513C95.3925 115.513 95.5133 115.467 95.5262 115.463C95.5713 115.445 95.6132 115.417 95.6471 115.395C95.6567 115.388 95.6664 115.382 95.6745 115.377C95.7631 115.342 96.0322 115.172 96.1144 115.108C96.1885 115.05 96.3207 114.95 96.4448 114.867C96.4561 114.914 96.4883 114.953 96.5318 114.975C96.5785 114.998 96.6591 115.022 96.7622 115.045C96.8235 115.058 96.983 115.069 97.2409 115.088C97.3875 115.098 97.5873 115.113 97.6244 115.121C97.6663 115.129 97.7501 115.14 97.8452 115.153C97.9419 115.166 98.103 115.188 98.1353 115.198C98.1449 115.201 98.1546 115.203 98.1643 115.206C98.1643 115.206 98.1643 115.206 98.1627 115.208C98.1272 115.243 98.1111 115.292 98.1175 115.342C98.1482 115.585 98.1868 115.945 98.1933 116.029C98.203 116.169 98.29 116.375 98.3851 116.592C98.4672 116.779 98.6332 117.112 98.7396 117.306C98.8347 117.477 99.0667 117.766 99.2053 117.938C99.2392 117.98 99.2666 118.014 99.2843 118.037C99.3794 118.159 100.172 119.003 100.356 119.183C100.551 119.374 101.342 119.964 101.524 120.045C101.661 120.104 102.62 120.467 102.678 120.482C102.881 120.532 103.139 120.593 103.236 120.601C103.265 120.603 103.344 120.627 103.415 120.646C103.54 120.683 103.697 120.729 103.842 120.745C103.916 120.753 104.011 120.759 104.111 120.766C104.317 120.78 104.573 120.798 104.705 120.837C104.781 120.859 104.802 120.88 104.81 120.888C104.823 120.901 104.839 120.912 104.855 120.921C104.881 120.933 104.907 120.945 104.931 120.958C104.931 120.958 104.931 120.958 104.929 120.959C104.892 120.995 104.875 121.046 104.883 121.096C104.896 121.19 104.878 121.309 104.862 121.424C104.855 121.466 104.849 121.508 104.844 121.551C104.825 121.559 104.802 121.569 104.784 121.575C104.709 121.606 104.623 121.64 104.556 121.696C104.48 121.761 104.217 121.864 104.091 121.914L104.045 121.933C103.94 121.975 103.793 122.061 103.676 122.129C103.614 122.164 103.558 122.196 103.531 122.209C103.465 122.242 103.31 122.361 102.941 122.666C102.905 122.695 102.88 122.717 102.868 122.725C102.776 122.8 102.61 123.027 102.535 123.164C102.457 123.308 102.301 123.572 102.212 123.687C102.18 123.729 101.897 124.1 101.766 124.335C101.742 124.38 101.71 124.433 101.677 124.491C101.558 124.698 101.424 124.93 101.381 125.071C101.357 125.146 101.315 125.212 101.276 125.269C101.242 125.321 101.213 125.366 101.199 125.417C101.178 125.495 101.202 126.325 101.266 126.453C101.316 126.554 101.378 126.593 101.432 126.629C101.442 126.635 101.452 126.641 101.463 126.65C101.513 126.683 101.603 126.716 101.814 126.785C101.918 126.819 102.045 126.861 102.085 126.882C102.212 126.946 102.591 127.032 102.796 127.056C102.818 127.072 102.849 127.091 102.884 127.116C103.023 127.209 103.233 127.353 103.421 127.488C103.585 127.606 103.613 127.691 103.621 127.787C103.614 127.788 103.608 127.79 103.603 127.791C103.576 127.8 103.553 127.806 103.539 127.812C103.506 127.827 103.5 127.83 103.432 127.862L103.373 127.891C103.31 127.922 103.112 127.987 102.981 128.029C102.831 128.077 102.78 128.095 102.751 128.109C102.735 128.117 102.646 128.148 102.573 128.174C102.359 128.25 102.188 128.311 102.108 128.353C101.964 128.427 101.868 128.525 101.766 128.638C101.682 128.73 101.416 128.967 101.32 129.024C101.3 129.035 101.281 129.046 101.26 129.059C101.176 129.111 101.071 129.175 100.994 129.193C100.97 129.2 100.949 129.209 100.93 129.225C100.93 129.225 100.926 129.229 100.925 129.229C100.917 129.222 100.907 129.217 100.897 129.212C100.789 129.162 100.657 129.156 100.59 129.156C100.567 129.156 100.535 129.156 100.509 129.161C100.454 129.169 100.401 129.2 100.317 129.25C100.288 129.267 100.256 129.287 100.238 129.295C100.146 129.337 100.088 129.446 100.005 129.646C100.003 129.65 100.001 129.654 99.9998 129.658C99.9676 129.682 99.8886 129.73 99.8161 129.758C99.6791 129.811 99.5953 129.917 99.5276 130.004L99.5018 130.037C99.3923 130.174 99.3987 130.327 99.5196 130.437C99.7097 130.608 99.8403 130.701 99.9079 130.714C99.9176 130.716 99.9289 130.717 99.9386 130.717C99.9498 130.717 99.9627 130.717 99.974 130.714C99.9998 130.767 100.051 130.803 100.111 130.806C100.114 130.806 100.116 130.806 100.119 130.806C100.18 130.806 100.235 130.772 100.262 130.717C100.277 130.709 100.322 130.693 100.412 130.693C100.438 130.693 100.459 130.693 100.472 130.695C100.49 130.695 100.525 130.701 100.569 130.708C100.685 130.724 100.777 130.735 100.843 130.735C100.849 130.735 100.856 130.735 100.862 130.735C100.86 130.783 100.862 130.83 100.865 130.874C100.872 130.937 100.915 130.99 100.975 131.009C100.991 131.014 101.009 131.017 101.025 131.017C101.065 131.017 101.105 131.001 101.136 130.972C101.15 130.966 101.208 130.946 101.397 130.946C101.46 130.946 101.524 130.948 101.586 130.95C101.64 130.951 101.69 130.953 101.734 130.953C101.782 130.953 101.816 130.951 101.845 130.946C101.882 130.941 101.918 130.922 101.942 130.895C101.971 130.862 102.006 130.822 102.042 130.782C102.093 130.722 102.158 130.648 102.187 130.621C102.191 130.621 102.196 130.619 102.201 130.617C102.235 130.609 102.317 130.59 102.357 130.506L102.366 130.488C102.366 130.488 102.366 130.488 102.366 130.487C102.374 130.485 102.388 130.48 102.415 130.48C102.588 130.475 102.918 130.417 103.06 130.322C103.21 130.222 103.402 129.872 103.428 129.796C103.431 129.793 103.45 129.775 103.466 129.762C103.502 129.732 103.552 129.688 103.614 129.619C103.721 129.501 104.141 129.262 104.364 129.193L104.499 129.15C104.794 129.056 105.484 128.835 105.648 128.808C105.904 128.764 106.217 128.538 106.286 128.479C106.404 128.379 106.418 128.206 106.43 128.067C106.431 128.046 106.433 128.027 106.435 128.008C106.451 127.866 106.393 127.521 106.291 127.377C106.228 127.288 106.075 127.191 105.795 127.033C105.746 127.006 105.706 126.983 105.688 126.972C105.672 126.961 105.668 126.943 105.672 126.93C105.692 126.866 105.692 126.771 105.69 126.619C105.69 126.553 105.687 126.456 105.692 126.422C105.724 126.353 105.925 126.117 106.072 125.987C106.175 125.895 106.452 125.766 106.617 125.688C106.667 125.664 106.71 125.645 106.741 125.629C106.823 125.587 107.07 125.524 107.152 125.503C107.184 125.495 107.213 125.475 107.234 125.451C107.276 125.491 107.311 125.514 107.339 125.533C107.368 125.553 107.381 125.562 107.4 125.585C107.45 125.648 107.535 125.706 107.653 125.788C107.745 125.851 107.848 125.924 107.94 126.003C107.969 126.029 108.006 126.041 108.045 126.041C108.059 126.041 108.075 126.04 108.09 126.035C108.112 126.029 108.133 126.017 108.151 126.001C108.177 126.029 108.199 126.051 108.217 126.069C108.272 126.124 108.359 126.151 108.57 126.208C108.708 126.395 108.99 126.521 109.116 126.569C109.256 126.624 109.738 126.816 110.096 127.021C110.37 127.177 110.662 127.769 110.687 127.993C110.71 128.185 110.615 128.477 110.555 128.621C110.517 128.706 110.173 129.133 110.062 129.275L109.996 129.358C109.859 129.53 109.55 129.858 109.463 129.903C109.429 129.921 109.363 129.943 109.292 129.967C109.124 130.025 108.915 130.096 108.775 130.209C108.675 130.29 108.562 130.406 108.454 130.519C108.359 130.617 108.26 130.721 108.186 130.78C108.148 130.811 108.117 130.83 108.096 130.841C108.059 130.825 108.019 130.817 107.972 130.817C107.903 130.817 107.833 130.835 107.782 130.848H107.775C107.725 130.854 107.508 130.856 107.332 130.856C106.907 130.856 106.754 130.861 106.692 130.875C106.514 130.917 106.427 131.091 106.375 131.195C106.32 131.306 106.253 131.535 106.233 131.756C106.214 131.966 106.219 132.182 106.227 132.325C106.227 132.346 106.215 132.403 106.206 132.446C106.18 132.562 106.149 132.708 106.191 132.845C106.204 132.888 106.236 132.925 106.278 132.945C106.299 132.954 106.322 132.959 106.344 132.959C106.367 132.959 106.389 132.954 106.41 132.945C106.418 132.943 106.46 132.935 106.488 132.93C106.599 132.911 106.683 132.893 106.742 132.851C106.755 132.843 106.767 132.833 106.776 132.824C106.784 132.917 106.797 133.006 106.82 133.079C106.837 133.14 106.891 133.183 106.954 133.191C106.96 133.191 106.966 133.191 106.973 133.191C107.029 133.191 107.082 133.162 107.111 133.112C107.124 133.096 107.198 133.064 107.3 133.059C107.306 133.059 107.313 133.059 107.319 133.059C107.348 133.059 107.384 133.061 107.421 133.064C107.466 133.067 107.511 133.069 107.553 133.069C107.598 133.069 107.648 133.066 107.693 133.053C107.692 133.119 107.692 133.182 107.695 133.24C107.7 133.304 107.742 133.359 107.801 133.38C107.819 133.387 107.837 133.39 107.856 133.39C107.899 133.39 107.943 133.372 107.974 133.338C108.025 133.283 108.293 133.183 108.417 133.172C108.439 133.17 108.465 133.169 108.491 133.169C108.513 133.169 108.536 133.169 108.559 133.169C108.583 133.169 108.607 133.169 108.63 133.169C108.739 133.169 108.826 133.159 108.895 133.112C108.95 133.077 109.087 132.948 109.337 132.711C109.389 132.662 109.429 132.624 109.445 132.608C109.527 132.532 109.603 132.372 109.716 132.117C110.004 131.901 110.718 131.162 110.91 130.932C111.008 130.812 111.198 130.572 111.382 130.338C111.59 130.075 111.804 129.801 111.873 129.724C112.027 129.551 112.278 129.321 112.525 129.19C112.839 129.024 113.419 128.411 113.606 128.093C113.749 127.85 113.753 127.43 113.616 126.845C113.54 126.521 113.161 126.279 112.932 126.254C112.916 126.253 112.9 126.251 112.886 126.251C112.758 126.251 112.678 126.309 112.613 126.356C112.573 126.385 112.536 126.412 112.479 126.432C112.478 126.432 112.475 126.432 112.47 126.432C112.449 126.432 112.336 126.417 112.091 126.116C112.007 126.011 111.965 125.54 112.007 125.146C112.012 125.096 112.019 125.03 112.027 124.953C112.064 124.553 112.133 123.809 112.265 123.366C112.394 122.932 112.592 122.558 112.699 122.38C112.713 122.383 112.729 122.387 112.745 122.387C112.808 122.387 112.866 122.356 112.916 122.296C112.929 122.282 112.939 122.264 112.945 122.245C112.953 122.224 112.994 122.156 113.023 122.106C113.111 121.958 113.221 121.772 113.255 121.601C113.269 121.522 113.287 121.43 113.305 121.332C113.321 121.24 113.338 121.148 113.354 121.061C113.57 121.183 113.814 121.271 113.925 121.309C114.054 121.356 114.404 121.38 114.597 121.38C114.65 121.38 114.697 121.379 114.734 121.375C115.032 121.348 115.382 121.269 115.562 121.208C115.857 121.122 116.208 120.833 116.515 120.569C116.557 120.533 116.592 120.503 116.616 120.482C116.803 120.33 117.095 119.832 117.28 119.348C117.465 118.792 117.456 118.3 117.388 118.021C117.325 117.766 117.196 117.532 117.071 117.306C117.019 117.214 116.968 117.119 116.919 117.022C116.919 117.019 116.916 117.017 116.916 117.014C116.882 116.954 116.776 116.788 116.65 116.595C116.537 116.419 116.421 116.238 116.378 116.164C116.325 116.058 116.262 115.951 116.202 115.848C116.051 115.588 115.894 115.321 115.831 114.995C115.801 114.837 115.789 114.237 115.835 114.13C115.996 113.75 116.229 113.49 116.549 113.335C116.661 113.282 116.895 113.196 117.037 113.196C117.066 113.196 117.08 113.2 117.085 113.201C117.085 113.201 117.087 113.203 117.088 113.204C117.145 113.253 117.232 113.448 117.303 113.606C117.369 113.753 117.436 113.904 117.514 114.032C117.577 114.14 117.76 114.374 118.007 114.463C118.063 114.487 118.129 114.498 118.199 114.498C118.328 114.498 118.449 114.458 118.542 114.385C118.594 114.345 118.614 114.279 118.598 114.217C118.582 114.154 118.529 114.108 118.466 114.1C118.445 114.096 118.426 114.092 118.407 114.087C118.442 114.088 118.479 114.095 118.523 114.104C118.653 114.135 119.004 114.258 119.087 114.343C119.191 114.453 119.241 114.514 119.249 114.74C119.254 114.869 119.225 114.951 119.201 115.019C119.182 115.075 119.161 115.135 119.175 115.201C119.193 115.28 119.261 115.335 119.341 115.335C119.411 115.335 119.462 115.296 119.515 115.233C119.531 115.253 119.554 115.267 119.578 115.277C119.598 115.283 119.617 115.287 119.635 115.287C119.686 115.287 119.736 115.262 119.767 115.217C119.791 115.183 119.809 115.166 119.831 115.143C119.844 115.13 119.859 115.117 119.873 115.101C119.942 115.025 120.004 114.871 120.025 114.761C120.049 114.633 120.063 114.145 119.952 113.793L119.942 113.801ZM108.542 107.045C108.523 107.05 108.502 107.056 108.48 107.063C108.48 107.063 108.48 107.061 108.48 107.059C108.476 107.048 108.473 107.037 108.468 107.025C108.493 107.03 108.517 107.037 108.542 107.043V107.045ZM99.2827 111.58C99.2827 111.58 99.2682 111.58 99.2601 111.579C99.2666 111.567 99.2746 111.554 99.2827 111.54C99.2827 111.553 99.2827 111.567 99.2827 111.58Z" fill="white"/>
<path d="M71.1455 118.411C71.1455 118.411 71.131 118.411 71.1261 118.415L68.841 119.894C68.841 119.894 68.8313 119.906 68.8313 119.912L68.8507 121.007C68.812 121.051 67.2392 122.848 65.4052 124.943C65.3907 124.943 65.3762 124.94 65.3633 124.94C67.0732 121.948 68.6041 119.259 68.6057 119.256L69.5952 118.622C69.6016 118.619 69.6065 118.612 69.6081 118.604L70.3236 115.846C70.3284 115.827 70.3139 115.809 70.293 115.811C70.293 115.811 70.2801 115.814 70.2753 115.819L68.2367 117.88C68.2367 117.88 68.2286 117.894 68.2286 117.902L68.3108 119.143C68.2754 119.202 66.6896 121.894 64.9476 124.854C65.8275 122.348 66.551 120.272 66.5527 120.269L67.4277 119.507C67.4325 119.502 67.4358 119.496 67.4358 119.49L67.4696 117.022C67.4696 117.004 67.4487 116.993 67.4293 116.999C67.4293 116.999 67.4164 117.006 67.4116 117.011L65.8065 119.211C65.8065 119.211 65.8017 119.223 65.8033 119.231L66.2126 120.246C66.1933 120.299 65.4198 122.398 64.498 124.899C64.303 124.841 64.0886 124.791 63.9162 124.78C63.892 124.767 63.8679 124.752 63.8453 124.741C63.7309 124.688 63.6181 124.67 63.5101 124.681C63.4037 124.691 63.3022 124.728 63.2104 124.786C63.0282 124.901 62.8832 125.091 62.7962 125.301C62.7092 125.507 62.6802 125.686 62.7092 125.859C62.7333 126.004 62.8188 126.149 62.9203 126.299C62.8864 126.28 62.8623 126.257 62.8155 126.243C62.7333 126.214 62.6334 126.191 62.5319 126.169C62.3288 126.127 62.1161 126.093 62.0146 126.065C61.9115 126.036 61.5795 125.928 61.2491 125.814C61.0042 125.73 60.7592 125.64 60.6077 125.578C60.611 125.554 60.611 125.527 60.6077 125.494C60.6206 125.507 60.6335 125.522 60.648 125.533C60.6787 125.556 60.7093 125.569 60.7367 125.573C60.7641 125.578 60.7931 125.573 60.814 125.557C60.8366 125.541 60.8511 125.515 60.8591 125.48C60.8672 125.444 60.8688 125.401 60.8591 125.346C60.843 125.236 60.7721 125.064 60.7012 124.909C60.6303 124.754 60.5578 124.619 60.5385 124.583C60.5385 124.583 60.5384 124.581 60.5368 124.58C60.561 124.56 60.5787 124.533 60.5852 124.496C60.5932 124.456 60.5932 124.404 60.5804 124.341C60.5546 124.214 60.453 124.019 60.3515 123.841C60.25 123.665 60.1485 123.509 60.1211 123.469C60.0937 123.427 60.0131 123.335 59.9373 123.249C59.9003 123.207 59.8664 123.169 59.8374 123.136C59.7891 123.073 59.7343 123.009 59.6779 122.948C59.5603 122.819 59.4442 122.709 59.4136 122.68C59.3814 122.651 59.2927 122.591 59.2089 122.535C59.167 122.507 59.1251 122.48 59.0945 122.459C59.0623 122.438 59.0397 122.42 59.0349 122.415C59.0301 122.41 59.0236 122.41 59.0172 122.412C59.0107 122.412 59.0043 122.415 58.9978 122.419C58.9833 122.425 58.9672 122.433 58.9495 122.446C58.9495 122.446 58.9463 122.449 58.9447 122.449C58.827 122.278 58.5982 122.048 58.3774 121.84C58.1373 121.615 57.9101 121.42 57.8504 121.37C57.7973 121.325 57.6716 121.24 57.541 121.152C57.5265 121.072 57.512 120.993 57.4943 120.917C57.4395 120.686 57.3267 120.222 57.2139 119.772C57.5072 120.388 57.8488 121.002 58.0503 121.283C58.2066 121.501 58.3855 121.709 58.5434 121.875C58.7013 122.041 58.8399 122.165 58.9237 122.217C59.0123 122.272 59.1106 122.252 59.1783 122.188C59.2476 122.122 59.2911 122.012 59.2911 121.88C59.2911 121.617 59.159 121.02 58.9527 120.548C58.8899 120.402 58.7819 120.161 58.661 119.89C58.6433 119.823 58.624 119.757 58.5998 119.691C58.856 120.065 59.1026 120.391 59.2637 120.567C59.4458 120.764 59.6457 120.951 59.8229 121.096C60.0002 121.243 60.1501 121.349 60.2403 121.39C60.3338 121.433 60.4305 121.404 60.4901 121.33C60.5513 121.257 60.582 121.143 60.5658 121.011C60.5352 120.749 60.3322 120.172 60.0727 119.727C60.0437 119.677 60.005 119.612 59.9615 119.538C59.9615 119.523 59.9615 119.511 59.9583 119.496C60.1662 119.685 60.3499 119.841 60.482 119.936C60.6996 120.093 60.9333 120.235 61.1363 120.343C61.3394 120.451 61.5086 120.525 61.6037 120.548C61.7036 120.572 61.7922 120.523 61.8373 120.44C61.8825 120.356 61.8889 120.238 61.847 120.112C61.7648 119.864 61.4506 119.338 61.1057 118.954C61.1009 118.949 61.096 118.943 61.0912 118.938C61.0944 118.931 61.0977 118.927 61.0993 118.92C61.2556 119.014 61.3942 119.09 61.5005 119.14C61.7439 119.254 61.9985 119.349 62.2177 119.419C62.4368 119.488 62.6157 119.528 62.714 119.533C62.8171 119.538 62.8945 119.475 62.9235 119.383C62.9525 119.293 62.9364 119.175 62.8735 119.059C62.7462 118.83 62.3417 118.37 61.9324 118.056C61.9308 118.056 61.9276 118.052 61.926 118.051C61.9437 118.044 61.9614 118.038 61.9775 118.03C62.1467 118.099 62.295 118.154 62.4062 118.188C62.6624 118.265 62.9299 118.323 63.1572 118.359C63.3844 118.394 63.5681 118.409 63.6664 118.399C63.7696 118.39 63.8372 118.315 63.8517 118.22C63.8662 118.127 63.8356 118.012 63.755 117.907C63.5987 117.701 63.1394 117.315 62.6963 117.064C62.7462 117.044 62.7865 117.019 62.8171 116.986C62.8945 117.001 62.9654 117.012 63.025 117.02C63.2909 117.054 63.5649 117.065 63.7937 117.062C64.0226 117.059 64.2063 117.043 64.3014 117.017C64.4013 116.99 64.4544 116.906 64.4544 116.811C64.4544 116.715 64.4029 116.609 64.3062 116.519C64.1418 116.365 63.7341 116.119 63.3151 115.943C63.3248 115.93 63.3344 115.915 63.3409 115.901C63.3618 115.856 63.3651 115.807 63.3538 115.756C63.3828 115.756 63.4134 115.759 63.4392 115.759C63.7067 115.764 63.9807 115.748 64.2079 115.722C64.4351 115.696 64.6172 115.661 64.7091 115.623C64.8058 115.586 64.8509 115.496 64.8396 115.402C64.8283 115.309 64.7671 115.207 64.6623 115.127C64.5125 115.014 64.1853 114.852 63.8276 114.725C63.8824 114.725 63.9339 114.725 63.9774 114.722C64.245 114.709 64.5157 114.673 64.7413 114.63C64.9669 114.588 65.1458 114.54 65.2344 114.498C65.3279 114.454 65.3666 114.361 65.3488 114.267C65.3311 114.173 65.2634 114.077 65.1522 114.006C64.9379 113.867 64.3916 113.662 63.8952 113.573C63.9033 113.567 63.9114 113.559 63.9194 113.551C64.1789 113.52 64.4029 113.485 64.5528 113.449C64.8138 113.388 65.0733 113.304 65.2876 113.222C65.5019 113.14 65.6679 113.061 65.7485 113.002C65.8323 112.943 65.8532 112.844 65.8194 112.756C65.7856 112.667 65.7018 112.585 65.5793 112.533C65.3488 112.438 64.7961 112.336 64.2997 112.333C64.303 112.322 64.3078 112.312 64.3094 112.301C64.3094 112.298 64.3094 112.294 64.3094 112.291C64.5511 112.246 64.759 112.199 64.8992 112.157C65.1555 112.08 65.4101 111.98 65.6196 111.885C65.8275 111.79 65.9902 111.699 66.066 111.638C66.1465 111.572 66.1611 111.473 66.1224 111.386C66.0837 111.299 65.9935 111.222 65.8694 111.18C65.7308 111.132 65.4745 111.09 65.1893 111.067C65.4391 110.988 65.684 110.89 65.8855 110.794C66.0934 110.698 66.2545 110.606 66.3286 110.543C66.4076 110.477 66.4221 110.377 66.3818 110.291C66.3415 110.206 66.2513 110.128 66.1256 110.086C66.0176 110.051 65.842 110.019 65.6373 109.998C65.8516 109.912 66.0595 109.815 66.232 109.722C66.4334 109.614 66.5897 109.514 66.6622 109.448C66.738 109.377 66.7476 109.277 66.7025 109.193C66.6574 109.109 66.5639 109.038 66.4366 109.002C66.3141 108.969 66.1079 108.944 65.871 108.935C66.0063 108.883 66.124 108.835 66.211 108.791C66.4527 108.675 66.688 108.536 66.8798 108.411C67.0716 108.283 67.2166 108.17 67.2827 108.096C67.352 108.019 67.352 107.919 67.2988 107.84C67.2472 107.761 67.1457 107.698 67.0152 107.675C66.7573 107.628 66.1449 107.654 65.6438 107.773C65.5406 107.798 65.3859 107.835 65.2103 107.878C65.1941 107.867 65.1732 107.859 65.1555 107.849C65.8307 107.632 66.5285 107.352 66.8459 107.18C67.0812 107.051 67.3101 106.901 67.4938 106.765C67.6775 106.63 67.8177 106.507 67.8789 106.432C67.9434 106.351 67.9386 106.251 67.8822 106.173C67.8258 106.096 67.7226 106.04 67.5905 106.023C67.3552 105.993 66.8331 106.038 66.3689 106.154C66.5236 106.059 66.6896 105.956 66.8572 105.846C67.4696 105.451 68.1207 104.996 68.4285 104.651C68.5816 104.48 68.6799 104.328 68.7298 104.194C68.7798 104.061 68.783 103.944 68.7395 103.851C68.696 103.757 68.6073 103.691 68.4913 103.657C68.4623 103.648 68.4301 103.641 68.3962 103.636C68.9313 103.212 69.4341 102.772 69.6919 102.435C69.853 102.225 69.9497 102.043 69.9949 101.885C70.0384 101.728 70.0287 101.594 69.9675 101.493C69.9062 101.391 69.795 101.327 69.6564 101.299C69.5178 101.272 69.3503 101.28 69.1617 101.32C68.414 101.483 67.6727 102.03 66.9249 102.491C66.746 102.603 66.5059 102.756 66.2303 102.938C66.2239 102.932 66.2158 102.927 66.2062 102.93C65.5261 103.057 65.1136 103.335 64.867 103.499C64.8106 103.536 64.7622 103.57 64.7203 103.594C64.1289 103.94 62.1258 105.338 60.8285 106.42C59.5087 107.52 58.6642 108.794 58.5224 109.109C58.3726 109.441 58.2324 110.098 58.2195 110.351C58.2082 110.588 58.2614 111.446 58.3693 111.599C58.4161 111.667 58.6078 111.806 58.8286 111.965C59.0671 112.138 59.3363 112.335 59.4281 112.448C59.5941 112.654 59.5619 113.309 59.3443 114.115C59.1316 114.911 58.5917 115.169 58.0696 115.419C57.7618 115.565 57.3638 115.617 56.9496 115.631C56.9012 115.551 56.8191 115.509 56.7304 115.42C56.637 115.327 56.5693 115.257 56.5241 115.191C56.479 115.125 56.4532 115.061 56.442 114.969C56.4887 114.82 56.5258 114.719 56.5258 114.585C56.5258 114.541 56.5064 114.48 56.4758 114.401C56.4452 114.32 56.4017 114.225 56.3517 114.125C56.255 113.93 56.1326 113.725 56.023 113.594C56.0471 113.469 56.0713 113.249 56.1035 113.152C56.1164 113.115 56.1132 113.065 56.1068 112.999C56.1003 112.933 56.0874 112.852 56.0713 112.767C56.0391 112.598 55.9907 112.409 55.9488 112.265C55.9601 112.165 55.9811 112.03 55.9972 111.902C56.0133 111.775 56.0262 111.659 56.0197 111.591C56.0133 111.535 56.002 111.315 55.9843 111.082C55.9666 110.848 55.9424 110.596 55.9118 110.459C55.8489 110.183 55.583 109.801 55.475 109.656C55.4444 109.614 55.3784 109.551 55.3187 109.485C55.3735 109.485 55.4509 109.482 55.5315 109.48C55.6652 109.477 55.807 109.473 55.8586 109.473C55.9037 109.473 55.9488 109.496 55.994 109.528C56.0391 109.561 56.0794 109.599 56.1197 109.625C56.1664 109.656 56.2325 109.664 56.2921 109.657C56.3227 109.654 56.3501 109.648 56.3743 109.633C56.3968 109.62 56.4178 109.596 56.4178 109.565C56.4178 109.512 56.3759 109.473 56.3372 109.438C56.2985 109.402 56.2582 109.369 56.2454 109.346C56.2325 109.323 56.2115 109.307 56.1841 109.288C56.1567 109.269 56.1261 109.251 56.0906 109.232C56.0214 109.193 55.9392 109.154 55.8747 109.119C55.7409 109.046 55.6007 108.986 55.5105 108.885C55.4106 108.772 54.8965 108.259 54.3905 107.896C53.8813 107.533 53.4897 107.47 53.0207 107.411C52.9014 107.396 52.7596 107.386 52.6001 107.383C52.1892 107.375 51.659 107.404 51.1127 107.44C51.0837 107.425 51.0546 107.409 51.0256 107.396C50.8355 107.307 50.6276 107.238 50.4616 107.235C50.4616 107.235 50.46 107.235 50.4584 107.235C50.4584 107.235 50.4552 107.235 50.4535 107.235C50.1296 107.232 49.7171 107.343 49.4931 107.572C49.3787 107.69 49.2997 107.875 49.2465 108.054C49.1933 108.232 49.1676 108.401 49.1676 108.488C49.1676 108.656 49.2111 108.835 49.3223 109.02C49.4318 109.202 49.6059 109.465 49.8347 109.546C49.8492 109.551 49.867 109.543 49.8718 109.528C49.8718 109.525 49.8734 109.52 49.8718 109.515C49.8605 109.398 49.8653 109.262 49.8782 109.144C49.8911 109.027 49.9121 108.927 49.9266 108.888C49.9411 108.848 49.9604 108.825 49.9814 108.811C49.9862 108.815 49.991 108.822 49.9959 108.827C50.0136 108.846 50.0362 108.867 50.0474 108.878C50.2263 109.082 50.3536 109.248 50.4407 109.351C50.4971 109.417 50.5954 109.523 50.7066 109.623C50.8177 109.723 50.937 109.815 51.0434 109.852C51.0982 109.872 51.1755 109.882 51.2593 109.89C51.2593 109.901 51.2593 109.911 51.2625 109.922C51.2899 110.091 51.4092 110.38 51.5462 110.588C51.688 110.801 52.1263 111.204 52.2472 111.307C52.2681 111.325 52.2842 111.364 52.2907 111.419C52.2971 111.472 52.2955 111.54 52.2858 111.607C52.2697 111.744 52.2294 111.891 52.1972 111.962C52.1682 112.027 52.0522 112.157 51.9087 112.293C51.7653 112.428 51.5929 112.575 51.4495 112.69C51.2996 112.809 51.1884 112.991 51.111 113.156C51.0337 113.32 50.9902 113.465 50.9805 113.523C50.9692 113.59 51.0015 113.664 51.0208 113.727C51.0305 113.759 51.0385 113.788 51.0385 113.806C51.0385 113.815 51.0385 113.82 51.0369 113.822C51.0369 113.823 51.0369 113.822 51.0337 113.823C51.0305 113.823 51.0289 113.825 51.0256 113.827C50.8097 113.978 50.6518 114.175 50.547 114.359C50.4423 114.543 50.3891 114.712 50.3842 114.819C50.3794 114.917 50.3762 115.07 50.3617 115.211C50.3536 115.28 50.344 115.346 50.3311 115.399C50.3182 115.452 50.2988 115.49 50.2843 115.504C50.2537 115.531 50.2054 115.58 50.1522 115.636C49.6397 115.636 49.1273 115.599 48.7502 115.419C48.228 115.169 47.6882 114.911 47.4755 114.115C47.2595 113.309 47.2257 112.654 47.3916 112.448C47.4819 112.335 47.7526 112.14 47.9911 111.965C48.2119 111.806 48.4021 111.667 48.4504 111.599C48.5568 111.446 48.61 110.588 48.6003 110.351C48.589 110.099 48.4488 109.443 48.2973 109.109C48.1555 108.794 47.3111 107.52 45.9912 106.42C44.694 105.338 42.6908 103.94 42.0994 103.594C42.0575 103.57 42.0092 103.538 41.9528 103.499C41.7062 103.335 41.2937 103.057 40.6136 102.93C40.6039 102.928 40.5975 102.932 40.591 102.936C40.3171 102.756 40.0802 102.603 39.9013 102.493C39.1536 102.032 38.4122 101.485 37.6645 101.322C37.476 101.282 37.3084 101.273 37.1698 101.301C37.0312 101.328 36.92 101.393 36.8587 101.494C36.7975 101.596 36.7878 101.728 36.8313 101.886C36.8749 102.043 36.9732 102.225 37.1343 102.436C37.3922 102.773 37.895 103.214 38.43 103.638C38.3961 103.643 38.3655 103.651 38.3349 103.659C38.2205 103.694 38.1302 103.759 38.0867 103.853C38.0432 103.946 38.0464 104.064 38.0964 104.196C38.1463 104.328 38.2447 104.482 38.3977 104.652C38.7072 104.998 39.3566 105.452 39.969 105.848C40.1366 105.956 40.3026 106.059 40.4573 106.154C39.9932 106.038 39.4694 105.993 39.2341 106.022C39.102 106.038 38.9988 106.096 38.9424 106.172C38.886 106.249 38.8812 106.349 38.9457 106.43C39.0069 106.507 39.1471 106.628 39.3308 106.764C39.5161 106.901 39.7434 107.051 39.9786 107.178C40.2961 107.351 40.9971 107.63 41.674 107.849C41.6546 107.859 41.6353 107.867 41.6192 107.878C41.4403 107.835 41.2856 107.796 41.1808 107.772C40.6797 107.652 40.0689 107.627 39.8094 107.673C39.6789 107.698 39.579 107.759 39.5258 107.838C39.4742 107.917 39.4726 108.017 39.5419 108.094C39.608 108.169 39.753 108.282 39.9448 108.409C40.1366 108.536 40.3719 108.673 40.6136 108.79C40.7006 108.832 40.8183 108.88 40.9536 108.933C40.7167 108.941 40.5105 108.967 40.388 109.001C40.2607 109.036 40.1672 109.107 40.1221 109.191C40.077 109.275 40.0866 109.375 40.1624 109.446C40.2349 109.514 40.3896 109.612 40.5926 109.72C40.7667 109.814 40.973 109.911 41.1873 109.996C40.9826 110.017 40.8054 110.049 40.699 110.085C40.5733 110.127 40.4831 110.202 40.4428 110.29C40.4025 110.375 40.417 110.475 40.4959 110.541C40.5717 110.604 40.7328 110.696 40.9391 110.793C41.1406 110.888 41.3871 110.986 41.6369 111.065C41.3501 111.086 41.0954 111.13 40.9568 111.178C40.8311 111.222 40.7425 111.299 40.7038 111.385C40.6652 111.472 40.6797 111.57 40.7602 111.636C40.836 111.699 40.9987 111.788 41.2066 111.883C41.4145 111.978 41.6691 112.078 41.927 112.156C42.0688 112.198 42.2767 112.244 42.5216 112.29C42.5216 112.293 42.5216 112.296 42.5216 112.299C42.5232 112.309 42.5281 112.32 42.5297 112.33C42.0333 112.333 41.4758 112.433 41.2469 112.53C41.1244 112.582 41.0406 112.664 41.0068 112.752C40.973 112.841 40.9939 112.94 41.0777 112.999C41.1583 113.057 41.3243 113.136 41.5386 113.219C41.7529 113.301 42.0124 113.385 42.2735 113.446C42.4233 113.481 42.6473 113.517 42.9084 113.548C42.9148 113.554 42.9229 113.562 42.931 113.569C42.433 113.657 41.8851 113.864 41.6724 114.002C41.5612 114.075 41.4935 114.17 41.4758 114.264C41.458 114.357 41.4967 114.449 41.5902 114.494C41.6788 114.536 41.8577 114.585 42.0833 114.627C42.3089 114.669 42.5796 114.706 42.8472 114.719C42.8907 114.72 42.9422 114.722 42.997 114.722C42.6393 114.849 42.3121 115.011 42.1623 115.123C42.0559 115.202 41.9947 115.304 41.985 115.399C41.9737 115.494 42.0188 115.583 42.1155 115.62C42.2074 115.656 42.3879 115.691 42.6167 115.719C42.8455 115.746 43.1179 115.762 43.3854 115.756C43.4128 115.756 43.4434 115.754 43.474 115.752C43.4644 115.804 43.4676 115.852 43.4869 115.898C43.4934 115.912 43.5014 115.925 43.5111 115.938C43.0921 116.114 42.6812 116.362 42.5184 116.515C42.4217 116.606 42.3702 116.712 42.3702 116.807C42.3702 116.902 42.4233 116.986 42.5232 117.014C42.6183 117.04 42.802 117.057 43.0309 117.059C43.2597 117.062 43.5337 117.051 43.7996 117.017C43.8592 117.009 43.9317 116.998 44.0091 116.983C44.0381 117.014 44.0784 117.04 44.1283 117.061C43.6835 117.312 43.2259 117.698 43.0679 117.904C42.9874 118.009 42.9551 118.123 42.9712 118.217C42.9857 118.311 43.0534 118.385 43.1566 118.396C43.2549 118.406 43.4386 118.391 43.6658 118.356C43.893 118.32 44.1589 118.262 44.4168 118.185C44.528 118.151 44.6762 118.096 44.8454 118.027C44.86 118.035 44.8777 118.041 44.8954 118.048C44.8938 118.049 44.8906 118.052 44.8873 118.054C44.478 118.369 44.0735 118.827 43.9462 119.057C43.8818 119.173 43.8673 119.291 43.8963 119.381C43.9253 119.472 44.0026 119.536 44.1058 119.531C44.2041 119.527 44.3845 119.485 44.6021 119.417C44.8213 119.348 45.0775 119.252 45.3192 119.138C45.4256 119.088 45.5642 119.011 45.7221 118.917C45.7237 118.923 45.7269 118.928 45.7302 118.935C45.7253 118.941 45.7189 118.948 45.7141 118.952C45.3708 119.336 45.0566 119.862 44.9728 120.111C44.9309 120.236 44.9373 120.354 44.9824 120.438C45.0275 120.522 45.1146 120.57 45.2161 120.546C45.3112 120.523 45.4804 120.449 45.6834 120.341C45.8865 120.233 46.1202 120.091 46.3377 119.935C46.4699 119.84 46.6568 119.681 46.8663 119.49C46.8647 119.502 46.8631 119.517 46.8615 119.53C46.8163 119.606 46.7777 119.672 46.747 119.723C46.4876 120.169 46.2845 120.746 46.2539 121.007C46.2378 121.14 46.2684 121.252 46.3297 121.327C46.3909 121.399 46.486 121.43 46.5794 121.386C46.6681 121.344 46.8196 121.238 46.9968 121.093C47.1741 120.946 47.3739 120.761 47.556 120.564C47.7188 120.386 47.9686 120.056 48.228 119.677C48.2055 119.74 48.1845 119.804 48.1684 119.865C48.0427 120.144 47.9315 120.396 47.8671 120.544C47.6608 121.017 47.5286 121.615 47.5286 121.877C47.5286 122.009 47.5721 122.119 47.6414 122.185C47.7107 122.251 47.809 122.269 47.8961 122.214C47.9799 122.162 48.1168 122.038 48.2764 121.872C48.4359 121.706 48.6116 121.498 48.7695 121.28C48.9709 121.001 49.3126 120.386 49.6043 119.772C49.4915 120.222 49.3787 120.685 49.3239 120.914C49.2578 121.196 49.2207 121.51 49.2094 121.78C49.1933 121.794 49.1772 121.81 49.1595 121.825C48.9387 122.031 48.7099 122.262 48.5922 122.435C48.5906 122.435 48.589 122.431 48.5874 122.431C48.5681 122.42 48.5519 122.41 48.5391 122.404C48.5326 122.401 48.5262 122.399 48.5197 122.398C48.5133 122.398 48.5052 122.398 48.502 122.401C48.4972 122.406 48.4746 122.422 48.4424 122.444C48.4101 122.465 48.3698 122.493 48.3279 122.52C48.2441 122.577 48.1555 122.636 48.1233 122.665C48.0927 122.694 47.9766 122.804 47.859 122.933C47.8026 122.994 47.7478 123.059 47.6995 123.122C47.6721 123.154 47.6366 123.193 47.5995 123.235C47.5238 123.322 47.4448 123.412 47.4158 123.454C47.3884 123.494 47.2869 123.649 47.1854 123.827C47.0838 124.002 46.9823 124.199 46.9565 124.327C46.9436 124.39 46.942 124.441 46.9517 124.481C46.9598 124.519 46.9775 124.546 47.0001 124.565C47.0001 124.565 47.0001 124.567 46.9984 124.569C46.9791 124.604 46.9066 124.74 46.8357 124.894C46.7648 125.049 46.6939 125.22 46.6777 125.331C46.6697 125.386 46.6713 125.43 46.6777 125.465C46.6858 125.501 46.7019 125.527 46.7229 125.543C46.7406 125.556 46.7632 125.56 46.7873 125.559C46.6471 125.612 46.4747 125.673 46.3023 125.733C45.9719 125.848 45.6399 125.956 45.5368 125.985C45.4353 126.014 45.2209 126.046 45.0195 126.088C44.9679 126.099 44.918 126.11 44.8696 126.123C44.8599 126.112 44.8503 126.101 44.8406 126.088C44.8164 126.057 44.789 126.03 44.7633 126.004C44.8019 125.928 44.8309 125.854 44.8438 125.778C44.8728 125.606 44.8438 125.427 44.7568 125.22C44.6827 125.043 44.5667 124.881 44.4216 124.767C44.5119 124.683 44.5957 124.602 44.6682 124.531C44.7262 124.475 44.7761 124.425 44.8132 124.383C44.8519 124.341 44.8777 124.312 44.8922 124.29C44.9405 124.214 44.9744 124.128 44.9792 124.052C44.9808 124.015 44.976 123.978 44.9599 123.949C44.9421 123.919 44.9131 123.898 44.8728 123.89C44.8326 123.881 44.7794 123.886 44.7101 123.898C44.6408 123.909 44.5586 123.93 44.4667 123.954C44.283 124.004 44.0639 124.077 43.856 124.152C43.5224 124.275 43.018 124.557 42.6038 124.917C42.6006 124.917 42.5974 124.914 42.5941 124.912C42.4878 124.872 42.4024 124.857 42.3089 124.856C42.3009 124.84 42.2912 124.823 42.2831 124.806C42.4153 124.719 42.5716 124.619 42.7215 124.517C42.9422 124.369 43.1453 124.222 43.2355 124.112C43.3258 124.004 43.3967 123.828 43.4724 123.664C43.5482 123.499 43.6271 123.346 43.7142 123.285C43.9124 123.146 44.1541 122.917 44.4264 122.925C44.4426 122.925 44.4555 122.912 44.4555 122.898C44.4555 122.885 44.4474 122.873 44.4361 122.87C44.0864 122.76 43.9124 122.662 43.7528 122.622C43.6739 122.601 43.5981 122.596 43.5111 122.612C43.4402 122.625 43.3596 122.652 43.2629 122.694C43.3306 122.569 43.3919 122.446 43.4338 122.356C43.4869 122.243 43.6835 122.086 43.9027 121.951C44.1219 121.815 44.3636 121.694 44.5054 121.631C44.5199 121.625 44.5264 121.609 44.5199 121.593C44.5199 121.593 44.5199 121.591 44.5183 121.59C44.5102 121.577 44.499 121.531 44.4538 121.494C44.4087 121.457 44.333 121.427 44.1896 121.414C43.661 121.383 43.3371 121.423 43.1098 121.507C42.8826 121.59 42.7553 121.715 42.6232 121.848C42.4862 121.985 42.317 122.249 42.13 122.577C41.9705 122.854 41.7981 123.175 41.624 123.493C41.5434 123.291 41.4564 123.048 41.3903 122.83C41.3936 122.825 41.3968 122.822 41.4016 122.817C41.458 122.754 41.5354 122.68 41.6208 122.606C41.79 122.456 41.9914 122.299 42.1268 122.198C42.2638 122.096 42.5071 121.904 42.7392 121.709C42.9712 121.514 43.1888 121.315 43.279 121.19C43.3258 121.123 43.3645 121.015 43.3983 120.875C43.4305 120.735 43.4563 120.565 43.4692 120.38C43.4966 120.009 43.4805 119.578 43.3854 119.212C43.3822 119.199 43.3709 119.191 43.358 119.191C43.3467 119.191 43.3355 119.198 43.3306 119.207C43.1872 119.512 42.8794 120.099 42.6473 120.365C42.5329 120.498 42.3363 120.641 42.1558 120.778C41.9753 120.915 41.8093 121.041 41.7529 121.162C41.6724 121.331 41.4677 121.893 41.3404 122.457C41.3275 122.388 41.2985 122.325 41.2598 122.27C41.2405 122.165 41.2163 122.023 41.1889 121.865C41.2115 121.81 41.2389 121.746 41.2711 121.677C41.4596 121.631 41.6015 121.462 41.6015 121.259C41.6015 121.199 41.5886 121.143 41.5676 121.091C41.645 120.944 41.7272 120.794 41.8093 120.646C41.9592 120.373 42.1091 120.109 42.2251 119.899C42.2831 119.794 42.3331 119.704 42.3718 119.631C42.4104 119.561 42.4346 119.509 42.4459 119.478C42.4685 119.417 42.4878 119.291 42.5087 119.125C42.5297 118.959 42.5523 118.754 42.5716 118.549C42.6103 118.14 42.6425 117.73 42.6506 117.62C42.6506 117.604 42.6393 117.591 42.6232 117.59H42.6199C42.6199 117.59 42.6054 117.593 42.6006 117.598C42.4765 117.727 42.1993 118.038 41.9367 118.356C41.8061 118.515 41.6788 118.675 41.5789 118.815C41.4774 118.956 41.4016 119.072 41.3726 119.152C41.3162 119.302 41.234 119.565 41.1631 119.822C41.0922 120.077 41.0326 120.322 41.0229 120.443C41.0181 120.519 41.0149 120.673 41.0165 120.857C40.9987 120.754 40.9826 120.654 40.9697 120.567C40.9536 120.467 40.9407 120.381 40.9327 120.315C40.9327 120.304 40.9294 120.294 40.9278 120.283C40.9585 120.219 40.9778 120.148 40.9778 120.07C40.9778 120.009 40.9649 119.951 40.9456 119.896C41.0568 119.228 41.3565 118.054 41.4532 117.751C41.508 117.577 41.6111 117.256 41.6804 116.919C41.7497 116.581 41.7916 116.231 41.7159 115.991C41.711 115.978 41.6981 115.969 41.6836 115.972C41.6836 115.972 41.6756 115.973 41.6724 115.977C41.6095 116.017 41.5112 116.119 41.3871 116.256C41.263 116.393 41.118 116.564 40.9762 116.738C40.8344 116.912 40.6942 117.09 40.5814 117.24C40.4686 117.39 40.3831 117.509 40.3477 117.575C40.28 117.698 40.1446 117.917 40.0624 118.165C39.9787 118.414 39.948 118.693 40.0947 118.928C40.2268 119.141 40.3493 119.378 40.4686 119.593C40.3412 119.606 40.23 119.669 40.1527 119.764C40.1043 119.694 40.056 119.625 40.0077 119.556C39.716 119.14 39.4162 118.722 39.3276 118.598C39.2373 118.473 39.1455 118.37 39.073 118.314C39.0359 118.286 39.0037 118.267 38.9682 118.272C38.9505 118.273 38.9312 118.286 38.9231 118.302C38.9134 118.319 38.9118 118.338 38.9118 118.359C38.9118 118.383 38.9167 118.427 38.9247 118.494C38.9328 118.562 38.9441 118.649 38.9586 118.751C38.9876 118.954 39.0279 119.212 39.0714 119.473C39.1149 119.733 39.1632 119.996 39.2083 120.206C39.2309 120.311 39.2535 120.402 39.2728 120.475C39.2938 120.548 39.3099 120.599 39.3308 120.631C39.3647 120.686 39.4501 120.799 39.5742 120.954C39.6676 121.07 39.782 121.211 39.9094 121.362C39.9029 121.357 39.8949 121.352 39.8884 121.348C39.6338 121.178 39.413 121.135 39.2164 121.099C39.0198 121.064 38.849 121.035 38.6765 120.899C38.5009 120.761 38.3236 120.577 38.185 120.441C38.1157 120.373 38.0577 120.319 38.0126 120.285C37.99 120.269 37.9707 120.256 37.9481 120.252C37.9368 120.252 37.9223 120.252 37.9111 120.261C37.8998 120.269 37.895 120.281 37.8917 120.293C37.8917 120.293 37.8917 120.294 37.8917 120.296C37.8305 120.793 38.1254 121.241 38.2672 121.56C38.3446 121.733 38.5573 121.93 38.8103 122.102C39.0633 122.275 39.355 122.42 39.5935 122.477C39.8191 122.53 40.106 122.609 40.3928 122.715C40.4121 122.762 40.4412 122.804 40.4734 122.843C40.359 122.798 40.2397 122.757 40.1172 122.719C39.803 122.619 39.4066 122.593 39.0424 122.599C38.6765 122.604 38.3413 122.641 38.1447 122.667C38.1286 122.669 38.1173 122.683 38.119 122.699C38.119 122.706 38.1222 122.71 38.127 122.715C39.0117 123.704 39.3663 123.659 39.8191 123.827C40.2526 123.988 40.6716 124.02 41.5257 124.038C41.624 124.243 41.7304 124.46 41.811 124.635C41.8416 124.699 41.8802 124.788 41.927 124.893C41.9189 124.896 41.9109 124.898 41.9028 124.901C41.8609 124.864 41.819 124.827 41.7771 124.79C41.7787 124.773 41.7819 124.757 41.7819 124.741C41.7819 124.494 41.5869 124.291 41.3452 124.291C41.2791 124.291 41.2163 124.307 41.1599 124.335C40.8344 124.131 40.5072 123.986 40.2397 123.957C39.9641 123.928 39.7353 123.894 39.4468 123.907C39.1584 123.92 38.8119 123.98 38.3011 124.138C38.2866 124.143 38.2769 124.159 38.2817 124.173C38.2817 124.178 38.2849 124.181 38.2882 124.185C38.5718 124.475 39.0552 124.773 39.4049 124.962C39.2889 124.99 39.1954 125.014 39.1423 125.028C38.907 125.096 38.8844 125.07 38.654 125.036C38.6379 125.033 38.6234 125.044 38.6217 125.06C38.6217 125.07 38.6234 125.081 38.6314 125.088C38.7861 125.22 39.1181 125.399 39.4694 125.556C39.8191 125.71 40.1833 125.841 40.4041 125.869C40.6023 125.893 40.8473 125.844 41.1212 125.754C40.8328 125.98 40.6748 126.123 40.5701 126.273C40.4782 126.406 40.4395 126.535 40.4283 126.683C40.417 126.831 40.4283 126.998 40.4379 127.209C40.4557 127.636 40.5314 128.04 40.4041 128.628C40.4009 128.644 40.4105 128.659 40.4267 128.662C40.4347 128.664 40.4428 128.662 40.4508 128.657C40.7022 128.47 40.9875 128.12 41.2163 127.793C41.3307 127.63 41.4306 127.472 41.5064 127.341C41.5821 127.21 41.6305 127.115 41.6417 127.059C41.6643 126.962 41.7159 126.659 41.7723 126.351C41.7803 126.302 41.79 126.254 41.7997 126.207C41.9125 126.265 42.0333 126.306 42.1187 126.314C42.1236 126.314 42.1284 126.314 42.1333 126.314C42.1365 126.327 42.1413 126.34 42.1478 126.356C42.0672 126.409 41.8964 126.527 41.8706 126.798C41.8674 126.823 41.8754 126.851 41.8851 126.886C41.8947 126.922 41.9093 126.962 41.9238 127.004C41.9544 127.086 41.9931 127.172 42.0172 127.222C42.0446 127.275 42.101 127.349 42.1623 127.415C42.1929 127.449 42.2235 127.48 42.2525 127.506C42.2815 127.531 42.3057 127.551 42.3315 127.56C42.4088 127.593 42.5522 127.623 42.765 127.604C42.8375 127.598 42.8939 127.581 42.9422 127.559C42.9632 127.57 42.9858 127.581 43.0131 127.593C43.0115 127.62 43.0099 127.651 43.0099 127.688C43.0099 127.762 43.0099 127.852 43.0148 127.941C43.018 128.03 43.0244 128.119 43.0309 128.188C43.0341 128.223 43.0373 128.254 43.0422 128.278C43.047 128.302 43.0486 128.317 43.0567 128.333C43.0744 128.369 43.105 128.406 43.1437 128.438C43.1824 128.469 43.2323 128.494 43.2855 128.494C43.3387 128.494 43.4692 128.478 43.5965 128.464C43.661 128.456 43.7238 128.449 43.7722 128.443C43.7963 128.439 43.8173 128.438 43.8334 128.436C43.8495 128.435 43.8608 128.435 43.8624 128.435C43.8721 128.435 43.8769 128.433 43.8834 128.43C43.8898 128.427 43.8963 128.425 43.9043 128.422C43.9204 128.415 43.9398 128.406 43.9623 128.394C44.0075 128.37 44.0639 128.338 44.1219 128.299C44.1799 128.26 44.2379 128.217 44.2862 128.172C44.3314 128.128 44.3668 128.085 44.3846 128.038C44.5844 128.165 44.7633 128.278 44.8745 128.357C45.1677 128.565 45.6174 128.757 45.7898 129.091C45.9655 129.431 46.0621 129.996 46.1476 130.37C46.1685 130.46 46.233 130.598 46.3248 130.762C46.4167 130.927 46.5327 131.117 46.6536 131.306C46.8969 131.683 47.158 132.049 47.2821 132.185C47.5222 132.449 47.9541 132.893 48.0637 133.002C48.083 133.022 48.1088 133.03 48.1346 133.031C48.1603 133.031 48.1861 133.025 48.2119 133.014C48.2651 132.991 48.3183 132.952 48.3618 132.906C48.4069 132.859 48.4424 132.806 48.4553 132.752C48.4617 132.725 48.4617 132.698 48.4536 132.672C48.444 132.646 48.4246 132.623 48.3972 132.609C48.3795 132.599 48.3441 132.573 48.3006 132.535C48.257 132.496 48.2022 132.446 48.1426 132.386C48.0218 132.267 47.8751 132.114 47.7252 131.952C47.4271 131.63 47.1209 131.275 47.0033 131.104C46.7648 130.759 46.515 130.283 46.3603 129.422C46.3087 129.136 46.2507 128.835 45.9655 128.601C45.8929 128.541 45.7302 128.431 45.5223 128.294C45.3144 128.159 45.063 127.998 44.818 127.841C44.586 127.693 44.3636 127.551 44.1863 127.436C44.1863 127.427 44.1863 127.417 44.1863 127.406C44.1863 127.36 44.1831 127.317 44.1718 127.286C44.1718 127.283 44.167 127.28 44.167 127.277C44.1686 127.273 44.1702 127.272 44.1734 127.269C44.3024 127.335 44.441 127.33 44.5602 127.283C44.6069 127.265 44.6827 127.235 44.7745 127.199C45.0147 127.212 45.2596 127.227 45.4836 127.244C45.4997 127.244 45.5126 127.233 45.5142 127.217C45.5142 127.215 45.5142 127.214 45.5142 127.212C45.5046 127.125 45.4804 127.043 45.4514 126.964C45.4933 126.951 45.5336 126.94 45.5739 126.928C45.7592 126.88 45.9139 126.854 46.046 126.836H46.0428C46.1814 126.836 46.3313 126.804 46.4296 126.772C46.5408 126.781 46.7374 126.74 46.8679 126.694C46.913 126.69 46.9888 126.678 47.0661 126.662C47.1354 126.648 47.2063 126.628 47.2579 126.604C47.2595 126.604 47.2611 126.604 47.2643 126.604C47.2692 126.604 47.2724 126.598 47.2772 126.594C47.2917 126.59 47.3465 126.586 47.4126 126.585C47.4819 126.585 47.5673 126.583 47.6543 126.578C47.7414 126.573 47.8284 126.565 47.9041 126.549C47.9073 126.549 47.9089 126.549 47.9122 126.548C47.9154 126.548 47.917 126.551 47.9202 126.552C47.917 126.565 47.9138 126.578 47.9138 126.591C47.9154 126.625 47.9315 126.654 47.9573 126.68C47.9831 126.706 48.0185 126.723 48.062 126.738C48.2345 126.794 48.444 126.754 48.647 126.736C48.8243 126.72 49.0821 126.678 49.3722 126.617C49.3787 126.619 49.3851 126.622 49.3932 126.623C49.5849 126.669 49.8105 126.585 50.0297 126.531C50.1925 126.491 50.4197 126.419 50.6759 126.322C50.207 126.606 49.7654 126.956 49.3642 127.435C48.7534 128.167 48.22 128.723 48.1104 129.49C48.0862 129.631 48.0846 129.801 48.1426 129.927C48.1716 129.989 48.2167 130.043 48.2828 130.072C48.3473 130.101 48.4311 130.104 48.531 130.075C48.7308 130.019 49.0596 129.831 49.3625 129.644C49.6558 129.464 49.9201 129.281 50.0152 129.215C49.9991 129.251 49.9846 129.286 49.9733 129.319C49.8186 129.736 49.5027 130.423 49.5156 131.022C49.5156 131.149 49.5575 131.31 49.6591 131.414C49.709 131.465 49.7767 131.501 49.8573 131.506C49.9379 131.51 50.0313 131.485 50.1361 131.419C50.402 131.254 50.8629 130.798 51.19 130.449C51.1546 130.622 51.1272 130.778 51.1127 130.91C51.0514 131.431 51.1368 131.88 51.2222 132.194C51.2658 132.357 51.3592 132.477 51.4898 132.506C51.6203 132.536 51.7766 132.475 51.9426 132.302C52.0586 132.183 52.2037 131.964 52.3535 131.714C52.4857 131.491 52.6194 131.246 52.7322 131.028C52.758 131.194 52.7919 131.388 52.8354 131.591C52.9256 132.02 53.0465 132.477 53.1819 132.752C53.3172 133.028 53.4913 133.127 53.654 133.119C53.8168 133.11 53.9602 133.002 54.0472 132.889C54.2229 132.664 54.3824 132.185 54.4485 131.796C54.5307 131.315 54.5661 130.893 54.5758 130.501C54.8079 130.998 55.2027 131.775 55.5121 132.157C55.6152 132.285 55.7087 132.362 55.7909 132.402C55.8747 132.443 55.9504 132.443 56.0149 132.419C56.1422 132.367 56.2147 132.225 56.2582 132.114C56.305 131.994 56.3227 131.751 56.3308 131.472C56.3388 131.193 56.3308 130.883 56.3195 130.648C56.3147 130.56 56.3001 130.459 56.2824 130.352C56.442 130.525 56.6434 130.738 56.84 130.925C56.9512 131.033 57.0608 131.13 57.1559 131.207C57.2526 131.285 57.3331 131.339 57.3992 131.362C57.5459 131.41 57.6603 131.423 57.7489 131.386C57.8375 131.351 57.8907 131.267 57.9165 131.148C57.9665 130.91 57.9294 130.514 57.8569 130.151C57.8198 129.965 57.7086 129.686 57.599 129.431C57.541 129.299 57.4846 129.173 57.4395 129.072C57.6716 129.23 57.9391 129.41 58.1888 129.569C58.4676 129.746 58.7207 129.894 58.8754 129.954C58.9946 129.999 59.0881 130.019 59.1622 130.014C59.2363 130.007 59.2927 129.975 59.3266 129.923C59.3959 129.82 59.3878 129.657 59.3701 129.469C59.3508 129.273 59.238 129.02 59.0784 128.733C58.9189 128.446 58.711 128.128 58.5015 127.809C58.1776 127.317 57.6522 126.802 57.2606 126.462C57.3638 126.494 57.4556 126.522 57.533 126.541C57.7521 126.594 57.9794 126.677 58.1695 126.633C58.1776 126.631 58.1824 126.628 58.1905 126.627C58.4805 126.69 58.74 126.731 58.9156 126.746C59.1187 126.764 59.3298 126.804 59.5006 126.748C59.5441 126.733 59.5796 126.714 59.6054 126.69C59.6263 126.669 59.6392 126.644 59.6441 126.619C59.6537 126.622 59.6618 126.623 59.6714 126.627C59.7456 126.644 59.8342 126.651 59.9212 126.656C60.0083 126.66 60.0937 126.66 60.163 126.662C60.2306 126.662 60.2854 126.669 60.2983 126.672C60.3016 126.675 60.3048 126.68 60.3096 126.68C60.3112 126.68 60.3128 126.68 60.3144 126.68C60.3676 126.706 60.4369 126.723 60.5078 126.74C60.5852 126.756 60.6609 126.767 60.706 126.772C60.8366 126.817 61.0332 126.859 61.1444 126.849C61.2427 126.881 61.3926 126.914 61.5311 126.914H61.5279C61.6585 126.931 61.8148 126.957 62.0001 127.006C62.4127 127.115 62.8607 127.301 63.0154 127.362C63.104 127.396 63.2007 127.407 63.2974 127.385C62.664 128.133 62.1435 128.764 61.5618 129.431C61.1363 129.92 60.7818 130.327 60.532 130.614C60.4079 130.757 60.3112 130.87 60.2435 130.948C60.2097 130.986 60.1839 131.017 60.1678 131.036C60.1597 131.046 60.1533 131.054 60.1485 131.06C60.1468 131.064 60.1436 131.065 60.142 131.067C60.142 131.067 60.142 131.069 60.1404 131.07C60.0759 131.131 60.0518 131.194 60.0582 131.252C60.0647 131.312 60.1017 131.365 60.1549 131.404C60.2613 131.48 60.4289 131.499 60.5352 131.409L60.5385 131.407C60.5385 131.407 60.5385 131.407 60.5401 131.406C60.5401 131.404 60.5433 131.402 60.5465 131.399C60.5513 131.394 60.5594 131.386 60.5675 131.375C60.5852 131.354 60.6126 131.323 60.6464 131.283C60.7141 131.204 60.814 131.088 60.9381 130.941C61.1879 130.648 61.544 130.23 61.9695 129.73C62.1081 129.567 62.2434 129.406 62.3772 129.244C62.1226 129.678 61.8825 130.088 61.6633 130.459C61.2959 131.085 60.9897 131.607 60.7753 131.973C60.669 132.157 60.5852 132.301 60.5272 132.401C60.4982 132.451 60.4772 132.488 60.4611 132.515C60.453 132.528 60.4482 132.538 60.445 132.546C60.4434 132.549 60.4418 132.552 60.4401 132.556C60.4401 132.556 60.4401 132.557 60.4401 132.559C60.3837 132.638 60.3644 132.715 60.3741 132.781C60.3837 132.849 60.4224 132.902 60.474 132.938C60.5771 133.007 60.7351 133.001 60.8285 132.878C60.8285 132.878 60.8301 132.875 60.8317 132.875C60.8317 132.875 60.8317 132.873 60.8334 132.872C60.8334 132.87 60.8366 132.867 60.8382 132.864C60.843 132.857 60.8479 132.846 60.8559 132.833C60.872 132.806 60.8946 132.767 60.9236 132.717C60.9816 132.615 61.067 132.469 61.175 132.28C61.3909 131.906 61.6971 131.372 62.0629 130.731C62.3434 130.241 62.6592 129.689 62.9976 129.099C62.8043 129.657 62.6238 130.181 62.4223 130.73C62.1999 131.338 62.0146 131.846 61.8841 132.202C61.8196 132.38 61.768 132.52 61.7342 132.617C61.7165 132.665 61.7036 132.702 61.6955 132.728C61.6907 132.741 61.6875 132.751 61.6859 132.757C61.6859 132.76 61.6842 132.764 61.6826 132.765C61.6826 132.765 61.6826 132.767 61.6826 132.769C61.644 132.848 61.644 132.917 61.6697 132.969C61.6971 133.022 61.7519 133.059 61.8148 133.075C61.9405 133.109 62.1049 133.065 62.1709 132.943L62.1725 132.939C62.1725 132.939 62.1725 132.938 62.1725 132.936C62.1725 132.935 62.1741 132.931 62.1758 132.928C62.179 132.922 62.1822 132.91 62.187 132.898C62.1967 132.872 62.2096 132.833 62.2273 132.785C62.2628 132.686 62.3143 132.543 62.3788 132.362C62.5077 131.999 62.6898 131.481 62.909 130.862C63.183 130.086 63.415 129.354 63.6938 128.512C63.6986 128.512 63.7019 128.515 63.7083 128.515C63.7083 128.515 63.7212 128.515 63.7373 128.517C63.7534 128.517 63.7744 128.52 63.7986 128.523C63.8469 128.528 63.9098 128.536 63.9742 128.544C64.1031 128.559 64.2337 128.575 64.2852 128.575C64.3384 128.575 64.3884 128.551 64.4271 128.519C64.4657 128.488 64.4963 128.449 64.5141 128.414C64.5221 128.398 64.5237 128.383 64.5286 128.359C64.5334 128.335 64.535 128.304 64.5382 128.269C64.5447 128.199 64.5511 128.11 64.5544 128.022C64.5576 127.933 64.5592 127.843 64.5592 127.769C64.5592 127.694 64.556 127.64 64.5463 127.606C64.5463 127.601 64.5399 127.596 64.535 127.593C64.5382 127.593 64.5399 127.591 64.5431 127.59C64.6059 127.636 64.6849 127.675 64.8041 127.686C65.0185 127.704 65.1603 127.675 65.2376 127.643C65.2618 127.633 65.2876 127.614 65.3166 127.588C65.3456 127.562 65.3762 127.531 65.4069 127.498C65.4681 127.431 65.5261 127.357 65.5519 127.304C65.5761 127.254 65.6147 127.169 65.6454 127.086C65.6615 127.044 65.6744 127.004 65.684 126.969C65.6937 126.933 65.7002 126.906 65.6985 126.88C65.6711 126.59 65.4729 126.472 65.4036 126.427C65.394 126.42 65.3811 126.414 65.3682 126.409C65.3698 126.404 65.3714 126.401 65.373 126.398C65.4004 126.398 65.4262 126.398 65.4504 126.396C65.5438 126.386 65.6808 126.34 65.8033 126.273C65.9242 126.206 66.0321 126.119 66.0466 126.01C66.0708 125.828 66.0982 125.535 65.9967 125.327C65.9499 125.233 65.8968 125.154 65.8323 125.091C67.6388 122.96 69.1714 121.151 69.173 121.148L70.2624 120.749C70.2688 120.746 70.2737 120.743 70.2769 120.736L71.1906 118.444C71.1971 118.428 71.1826 118.411 71.16 118.409L71.1455 118.411Z" fill="white"/>
</g>
</g>
<defs>
<clipPath id="clip0_11562_5548">
<rect width="160" height="174.18" fill="white"/>
</clipPath>
<clipPath id="clip1_11562_5548">
<rect width="160" height="174.328" fill="white"/>
</clipPath>
</defs>
</svg>
