<svg width="112" height="24" viewBox="0 0 112 24" fill="none" xmlns="http://www.w3.org/2000/svg">
<path d="M0.810151 15.1996C-0.0707496 9.73966 4.88865 5.07164 10.2712 6.27338C13.7185 7.04444 16.0699 9.96889 16.0699 13.7339C16.0699 14.4494 15.4872 15.0329 14.7728 15.0329H4.4378C4.20197 15.0329 4.0355 15.2621 4.10486 15.4844C4.70831 17.346 6.28977 18.5478 8.55792 18.5478C10.0007 18.5478 11.1867 17.9851 11.9914 17.0265C12.4838 16.443 13.337 16.3041 13.9959 16.6861C14.8768 17.1932 15.071 18.381 14.3913 19.1382C13.0387 20.6456 11.1104 21.5695 8.55792 21.5695C4.37537 21.5695 1.39279 18.8465 0.810151 15.1996ZM4.66669 12.157H12.1231C12.3659 12.157 12.5324 11.9139 12.4491 11.6847C11.8318 9.98279 10.3891 9.10059 8.42613 9.10059C6.46318 9.10059 5.069 10.1078 4.34763 11.6638C4.24358 11.8931 4.41699 12.157 4.66669 12.157Z" fill="#0040E7"/>
<path d="M17.1658 11.9761C17.1658 6.68287 21.1541 2.43164 26.6407 2.43164C29.6371 2.43164 32.1342 3.62643 33.8335 5.48113C34.5826 6.30082 34.3954 7.5998 33.4451 8.17636C32.7445 8.60009 31.7319 8.43338 31.2047 7.80125C30.081 6.46058 28.5689 5.79372 26.6684 5.79372C23.2142 5.79372 20.5992 8.62093 20.5992 11.9761C20.5992 15.3312 23.1934 18.1584 26.8002 18.1584C29.2972 18.1584 31.0382 16.9219 31.8845 14.9353C32.044 14.5601 31.7665 14.1364 31.3573 14.1364H27.8961C26.9875 14.1364 26.2453 13.3931 26.2453 12.4832C26.2453 11.5732 26.9875 10.8299 27.8961 10.8299H34.4994C35.2555 10.8299 35.8728 11.4481 35.8728 12.2053C35.8728 17.2206 32.37 21.5205 26.8002 21.5205C21.2304 21.5205 17.1658 17.1442 17.1658 11.9761Z" fill="#0040E7"/>
<path d="M57.1601 2.68848C57.8953 2.68848 58.5404 3.16084 58.7693 3.85548L62.3622 14.7128C62.494 15.1157 63.0628 15.1157 63.1946 14.7128L66.7668 3.86243C66.9956 3.16778 67.6477 2.69542 68.376 2.69542C69.5343 2.69542 70.3528 3.83464 69.9852 4.93218L65.0604 19.617C64.7275 20.6034 63.805 21.2702 62.7645 21.2702C61.7241 21.2702 60.8016 20.6034 60.4687 19.617L55.5439 4.93218C55.1832 3.8277 56.0017 2.68848 57.1601 2.68848Z" fill="#0040E7"/>
<mask id="mask0_11562_3195" style="mask-type:luminance" maskUnits="userSpaceOnUse" x="36" y="2" width="20" height="20">
<path d="M37.0658 14.567C35.4219 8.1832 40.0761 2.43848 46.2078 2.43848C51.4932 2.43848 55.7104 6.71055 55.7104 11.9829C55.7104 18.0124 50.2377 22.6874 43.9466 21.2703C40.5894 20.5062 37.9259 17.9013 37.0658 14.567ZM52.277 12.2608C52.4365 8.73891 49.6759 5.82835 46.1939 5.84224C42.9755 5.84919 40.3189 8.45411 40.1733 11.6703C40.0068 15.1922 42.7327 18.1097 46.2147 18.1027C49.447 18.1097 52.1313 15.4978 52.277 12.2608Z" fill="white"/>
</mask>
<g mask="url(#mask0_11562_3195)">
<path d="M39.1536 2.43164L48.3511 11.9761L37.3849 21.2635L36.2473 14.6991L36.7329 5.84235L39.1536 2.43164Z" fill="#F2C500"/>
<path d="M58.6097 11.9833H48.2748L38.4461 1.63306L45.5488 0.0214844L54.3925 0.507736L58.6097 11.9833Z" fill="#0040E7"/>
<path d="M57.7982 11.9837L48.2678 11.9004L36.7537 21.6602L45.5488 24.022L54.3925 23.5357L57.7982 11.9837Z" fill="#DB4343"/>
</g>
<path d="M69.6592 16.1282C69.6592 13.0989 71.9349 10.917 74.8627 10.917C76.6113 10.917 78.1491 11.7638 79.0751 13.0787C79.2076 13.267 79.1528 13.5282 78.9592 13.6525L77.9972 14.268C77.8141 14.3847 77.5692 14.3388 77.4465 14.1596C76.859 13.2989 76.037 12.78 74.862 12.78C72.9331 12.78 71.5319 14.2388 71.5319 16.1289C71.5319 18.019 72.9331 19.45 74.8204 19.45C76.0745 19.45 76.9845 18.8158 77.5491 17.8857C77.6615 17.7002 77.8959 17.6314 78.0874 17.7322L79.0834 18.2552C79.2908 18.3643 79.365 18.6269 79.2422 18.8269C78.31 20.3412 76.7105 21.3401 74.862 21.3401C71.74 21.3401 69.6585 19.0193 69.6585 16.1289L69.6592 16.1282Z" fill="#0040E7"/>
<path d="M85.5424 17.0181H82.469C82.2449 17.0181 82.0632 17.2001 82.0632 17.4245V20.7942C82.0632 21.0186 81.8815 21.2005 81.6574 21.2005H80.5823C80.3583 21.2005 80.1766 21.0186 80.1766 20.7942V11.463C80.1766 11.2386 80.3583 11.0566 80.5823 11.0566H81.6574C81.8815 11.0566 82.0632 11.2386 82.0632 11.463V14.8049C82.0632 15.0293 82.2449 15.2113 82.469 15.2113H85.5424C85.7665 15.2113 85.9482 15.0293 85.9482 14.8049V11.463C85.9482 11.2386 86.1299 11.0566 86.354 11.0566H87.4291C87.6531 11.0566 87.8348 11.2386 87.8348 11.463V20.7942C87.8348 21.0186 87.6531 21.2005 87.4291 21.2005H86.354C86.1299 21.2005 85.9482 21.0186 85.9482 20.7942V17.4245C85.9482 17.2001 85.7665 17.0181 85.5424 17.0181Z" fill="#0040E7"/>
<path d="M92.5203 11.0566H93.8486C94.0206 11.0566 94.1732 11.165 94.2307 11.3269L97.549 20.658C97.6434 20.9227 97.4471 21.2012 97.1668 21.2012H96.0612C95.8885 21.2012 95.7345 21.0915 95.6776 20.9276L95.242 19.6682C95.1852 19.5042 95.0312 19.3945 94.8585 19.3945H91.5097C91.337 19.3945 91.183 19.5042 91.1261 19.6682L90.6905 20.9276C90.6336 21.0915 90.4796 21.2012 90.3069 21.2012H89.2013C88.9211 21.2012 88.7248 20.9227 88.8191 20.658L92.1374 11.3269C92.195 11.165 92.3483 11.0566 92.5196 11.0566H92.5203ZM92.1859 17.5877H93.9526C94.2314 17.5877 94.4277 17.3119 94.3362 17.048L93.4109 14.3736C93.3387 14.1645 93.0433 14.1645 92.9711 14.3736L91.9661 17.2786C91.9134 17.43 92.0257 17.5877 92.1859 17.5877Z" fill="#0040E7"/>
<path d="M99.0084 11.0566H100.084C100.308 11.0566 100.489 11.2386 100.489 11.463V20.7942C100.489 21.0186 100.308 21.2005 100.084 21.2005H99.0084C98.7844 21.2005 98.6027 21.0186 98.6027 20.7942V11.463C98.6027 11.2386 98.7844 11.0566 99.0084 11.0566Z" fill="#0040E7"/>
<path d="M102.13 11.0566H103.638C103.777 11.0566 103.906 11.1275 103.981 11.2449L107.498 16.784C107.715 17.1271 108.246 16.9729 108.246 16.5659V11.463C108.246 11.2386 108.428 11.0566 108.652 11.0566H109.727C109.951 11.0566 110.133 11.2386 110.133 11.463V20.7942C110.133 21.0186 109.951 21.2005 109.727 21.2005H108.345C108.205 21.2005 108.076 21.129 108.002 21.0116L104.361 15.2558C104.143 14.9119 103.612 15.0661 103.612 15.4732V20.7942C103.612 21.0186 103.43 21.2005 103.206 21.2005H102.131C101.907 21.2005 101.725 21.0186 101.725 20.7942V11.463C101.725 11.2386 101.907 11.0566 102.131 11.0566H102.13Z" fill="#0040E7"/>
</svg>
