<svg width="149" height="33" viewBox="0 0 149 33" fill="none" xmlns="http://www.w3.org/2000/svg">
<path d="M1.0802 20.5548C-0.0943328 13.275 6.5182 7.05093 13.6949 8.65324C18.2913 9.68132 21.4265 13.5806 21.4265 18.6006C21.4265 19.5545 20.6496 20.3325 19.697 20.3325H5.91707C5.60262 20.3325 5.38066 20.6382 5.47315 20.9346C6.27775 23.4168 8.38636 25.0191 11.4106 25.0191C13.3342 25.0191 14.9157 24.2689 15.9885 22.9907C16.6451 22.2127 17.7826 22.0275 18.6612 22.5369C19.8358 23.213 20.0947 24.7968 19.1884 25.8064C17.385 27.8162 14.8139 29.048 11.4106 29.048C5.83383 29.048 1.85706 25.4174 1.0802 20.5548ZM6.22226 16.4981H16.1642C16.4879 16.4981 16.7098 16.1739 16.5989 15.8683C15.7758 13.5991 13.8521 12.4229 11.2348 12.4229C8.61757 12.4229 6.75866 13.7658 5.79684 15.8405C5.65811 16.1462 5.88932 16.4981 6.22226 16.4981Z" fill="white"/>
<path d="M22.8877 16.2572C22.8877 9.19956 28.2055 3.53125 35.5209 3.53125C39.5162 3.53125 42.8456 5.1243 45.1114 7.59724C46.1102 8.69015 45.8605 10.4221 44.5935 11.1909C43.6594 11.7559 42.3092 11.5336 41.6063 10.6907C40.1081 8.90317 38.0919 8.01403 35.5579 8.01403C30.9522 8.01403 27.4656 11.7836 27.4656 16.2572C27.4656 20.7307 30.9245 24.5003 35.7336 24.5003C39.063 24.5003 41.3843 22.8517 42.5126 20.2027C42.7253 19.7026 42.3554 19.1376 41.8097 19.1376H37.1948C35.9833 19.1376 34.9937 18.1466 34.9937 16.9333C34.9937 15.72 35.9833 14.7289 37.1948 14.7289H45.9992C47.0073 14.7289 47.8304 15.5532 47.8304 16.5628C47.8304 23.2499 43.16 28.9831 35.7336 28.9831C28.3072 28.9831 22.8877 23.148 22.8877 16.2572Z" fill="white"/>
<path d="M76.2134 3.87402C77.1938 3.87402 78.0538 4.50384 78.359 5.43003L83.1497 19.9064C83.3254 20.4436 84.0837 20.4436 84.2595 19.9064L89.0223 5.43929C89.3275 4.5131 90.1969 3.88329 91.1679 3.88329C92.7124 3.88329 93.8037 5.40224 93.3135 6.86563L86.7472 26.4454C86.3033 27.7606 85.0733 28.6497 83.6861 28.6497C82.2988 28.6497 81.0688 27.7606 80.6249 26.4454L74.0586 6.86563C73.5777 5.39298 74.669 3.87402 76.2134 3.87402Z" fill="white"/>
<mask id="mask0_11562_5552" style="mask-type:luminance" maskUnits="userSpaceOnUse" x="48" y="3" width="27" height="26">
<path d="M49.4211 19.7114C47.2292 11.1997 53.4349 3.54004 61.6104 3.54004C68.6576 3.54004 74.2805 9.23613 74.2805 16.2659C74.2805 24.3053 66.9836 30.5386 58.5954 28.6492C54.1192 27.6303 50.5679 24.1571 49.4211 19.7114ZM69.7026 16.6364C69.9153 11.9406 66.2345 8.05987 61.5919 8.07839C57.3006 8.08765 53.7585 11.5609 53.5643 15.8492C53.3424 20.545 56.977 24.435 61.6196 24.4257C65.9293 24.435 69.5084 20.9525 69.7026 16.6364Z" fill="white"/>
</mask>
<g mask="url(#mask0_11562_5552)">
<path d="M52.2048 3.53027L64.4681 16.2562L49.8465 28.6394L48.3298 19.8869L48.9772 8.07789L52.2048 3.53027Z" fill="#F2C500"/>
<path d="M78.1463 16.2655H64.3663L51.2615 2.46518L60.7318 0.316406L72.5234 0.964742L78.1463 16.2655Z" fill="#0040E7"/>
<path d="M77.0643 16.2654L64.3571 16.1543L49.0049 29.1673L60.7318 32.3164L72.5234 31.668L77.0643 16.2654Z" fill="#DB4343"/>
</g>
<path d="M92.8789 21.794C92.8789 17.7549 95.9133 14.8457 99.817 14.8457C102.148 14.8457 104.199 15.9747 105.433 17.728C105.61 17.979 105.537 18.3273 105.279 18.4931L103.996 19.3137C103.752 19.4693 103.426 19.4081 103.262 19.1692C102.479 18.0216 101.383 17.3298 99.816 17.3298C97.2441 17.3298 95.3759 19.2748 95.3759 21.7949C95.3759 24.3151 97.2441 26.2231 99.7605 26.2231C101.433 26.2231 102.646 25.3775 103.399 24.1373C103.549 23.89 103.861 23.7983 104.117 23.9326L105.445 24.63C105.721 24.7754 105.82 25.1255 105.656 25.3923C104.413 27.4114 102.281 28.7432 99.816 28.7432C95.6534 28.7432 92.878 25.6488 92.878 21.7949L92.8789 21.794Z" fill="white"/>
<path d="M114.057 22.9808H109.959C109.66 22.9808 109.418 23.2235 109.418 23.5226V28.0156C109.418 28.3148 109.175 28.5574 108.877 28.5574H107.443C107.144 28.5574 106.902 28.3148 106.902 28.0156V15.5741C106.902 15.2749 107.144 15.0322 107.443 15.0322H108.877C109.175 15.0322 109.418 15.2749 109.418 15.5741V20.03C109.418 20.3291 109.66 20.5718 109.959 20.5718H114.057C114.355 20.5718 114.598 20.3291 114.598 20.03V15.5741C114.598 15.2749 114.84 15.0322 115.139 15.0322H116.572C116.871 15.0322 117.113 15.2749 117.113 15.5741V28.0156C117.113 28.3148 116.871 28.5574 116.572 28.5574H115.139C114.84 28.5574 114.598 28.3148 114.598 28.0156V23.5226C114.598 23.2235 114.355 22.9808 114.057 22.9808Z" fill="white"/>
<path d="M123.36 15.0322H125.131C125.361 15.0322 125.564 15.1767 125.641 15.3925L130.065 27.8341C130.191 28.187 129.929 28.5584 129.556 28.5584H128.082C127.851 28.5584 127.646 28.412 127.57 28.1934L126.989 26.5143C126.914 26.2957 126.708 26.1493 126.478 26.1493H122.013C121.783 26.1493 121.577 26.2957 121.501 26.5143L120.921 28.1934C120.845 28.412 120.64 28.5584 120.409 28.5584H118.935C118.561 28.5584 118.3 28.187 118.425 27.8341L122.85 15.3925C122.927 15.1767 123.131 15.0322 123.359 15.0322H123.36ZM122.915 23.7403H125.27C125.642 23.7403 125.904 23.3726 125.782 23.0206L124.548 19.4548C124.452 19.176 124.058 19.176 123.961 19.4548L122.621 23.3281C122.551 23.5301 122.701 23.7403 122.915 23.7403Z" fill="white"/>
<path d="M132.011 15.0322H133.445C133.743 15.0322 133.986 15.2749 133.986 15.5741V28.0156C133.986 28.3148 133.743 28.5574 133.445 28.5574H132.011C131.713 28.5574 131.47 28.3148 131.47 28.0156V15.5741C131.47 15.2749 131.713 15.0322 132.011 15.0322Z" fill="white"/>
<path d="M136.174 15.0322H138.184C138.369 15.0322 138.541 15.1267 138.641 15.2832L143.33 22.6687C143.621 23.1262 144.328 22.9206 144.328 22.3779V15.5741C144.328 15.2749 144.57 15.0322 144.869 15.0322H146.303C146.601 15.0322 146.844 15.2749 146.844 15.5741V28.0156C146.844 28.3148 146.601 28.5574 146.303 28.5574H144.459C144.274 28.5574 144.102 28.462 144.003 28.3055L139.148 20.6311C138.858 20.1726 138.149 20.3782 138.149 20.921V28.0156C138.149 28.3148 137.907 28.5574 137.608 28.5574H136.175C135.876 28.5574 135.634 28.3148 135.634 28.0156V15.5741C135.634 15.2749 135.876 15.0322 136.175 15.0322H136.174Z" fill="white"/>
</svg>
