<svg width="61" height="60" viewBox="0 0 61 60" fill="none" xmlns="http://www.w3.org/2000/svg">
<path d="M53.4856 25.8672H7.76463C6.56021 25.8672 5.58384 26.8436 5.58384 28.048V56.7686C5.58384 57.973 6.56021 58.9494 7.76463 58.9494H53.4856C54.69 58.9494 55.6664 57.973 55.6664 56.7686V28.048C55.6664 26.8436 54.69 25.8672 53.4856 25.8672Z" fill="#87ACFB"/>
<path d="M30.6265 1C27.0912 1 23.5518 1.91567 20.389 3.7417C14.0635 7.39374 10.1593 14.1631 10.1593 21.4672V25.8664H20.1472V21.4672C20.1472 17.714 22.1365 14.2626 25.3869 12.386C28.6372 10.5094 32.6158 10.5094 35.8661 12.386C39.1165 14.2626 41.1058 17.714 41.1058 21.4672V25.8664H51.0937V21.4672C51.0937 14.1631 47.1895 7.39374 40.864 3.7417C37.7012 1.91567 34.1618 1 30.6265 1Z" fill="#A3C0FF"/>
<path d="M30.6266 32.1055C28.1328 32.1055 26.1113 34.127 26.1113 36.6207C26.1129 38.1526 26.8909 39.5791 28.1779 40.4098L26.07 47.4122L30.6076 47.3778L35.1831 47.3899L33.07 40.4185C34.3616 39.5874 35.1421 38.1567 35.1418 36.6208C35.1418 34.1271 33.1203 32.1055 30.6266 32.1055Z" fill="white"/>
<path d="M5.58659 53.624V56.7685C5.58659 57.9769 6.55784 58.9482 7.76625 58.9482H53.4864C54.6948 58.9482 55.666 57.9769 55.666 56.7685V53.624H5.58659Z" fill="#A3C0FF"/>
</svg>
